<?xml version="1.0" standalone="no"?>
<!DOCTYPE svg PUBLIC "-//W3C//DTD SVG 20010904//EN"
 "http://www.w3.org/TR/2001/REC-SVG-20010904/DTD/svg10.dtd">
<svg version="1.0" xmlns="http://www.w3.org/2000/svg"
 width="600.000000pt" height="338.000000pt" viewBox="0 0 600.000000 338.000000"
 preserveAspectRatio="xMidYMid meet">
<g transform="translate(0.000000,338.000000) scale(0.100000,-0.100000)"
fill="#000000" stroke="none">
<path d="M4980 3370 c0 -5 5 -10 11 -10 5 0 7 5 4 10 -3 6 -8 10 -11 10 -2 0
-4 -4 -4 -10z"/>
<path d="M5015 3340 c-3 -5 -1 -10 4 -10 6 0 11 5 11 10 0 6 -2 10 -4 10 -3 0
-8 -4 -11 -10z"/>
<path d="M5431 3324 c0 -11 3 -14 6 -6 3 7 2 16 -1 19 -3 4 -6 -2 -5 -13z"/>
<path d="M5913 3305 c0 -8 4 -12 9 -9 5 3 6 10 3 15 -9 13 -12 11 -12 -6z"/>
<path d="M5220 3300 c0 -5 5 -10 11 -10 5 0 7 5 4 10 -3 6 -8 10 -11 10 -2 0
-4 -4 -4 -10z"/>
<path d="M5760 3295 c0 -8 2 -15 4 -15 2 0 6 7 10 15 3 8 1 15 -4 15 -6 0 -10
-7 -10 -15z"/>
<path d="M5830 3275 c0 -5 5 -17 10 -25 5 -8 10 -10 10 -5 0 6 -5 17 -10 25
-5 8 -10 11 -10 5z"/>
<path d="M5930 3260 c0 -5 5 -10 10 -10 6 0 10 5 10 10 0 6 -4 10 -10 10 -5 0
-10 -4 -10 -10z"/>
<path d="M2923 3208 c8 -5 4 -8 -10 -8 -12 0 -25 -5 -28 -10 -4 -7 -12 -7 -25
0 -28 15 -37 12 -14 -5 19 -14 19 -14 -3 -15 -12 0 -28 -6 -35 -14 -8 -7 -24
-17 -36 -20 -13 -4 -19 -12 -16 -18 4 -7 2 -8 -4 -4 -7 4 -12 2 -12 -3 0 -17
-17 -13 -24 6 -4 10 -4 14 0 11 8 -9 44 9 44 22 0 15 -67 32 -122 30 -96 -2
-126 -5 -122 -11 2 -4 -2 -12 -10 -18 -11 -9 -15 -9 -19 1 -3 8 -6 6 -6 -6 -1
-12 -6 -16 -17 -12 -8 3 -13 2 -10 -2 7 -12 -33 -44 -46 -36 -7 5 -8 2 -4 -5
5 -7 2 -18 -7 -24 -19 -16 -38 -98 -31 -135 4 -17 1 -32 -5 -36 -6 -4 -9 -17
-5 -29 3 -13 1 -42 -4 -65 -6 -24 -6 -39 -1 -36 5 3 9 -4 9 -14 0 -17 -6 -19
-35 -17 -19 2 -33 0 -30 -5 3 -4 -2 -10 -10 -13 -8 -4 -12 -1 -9 7 3 7 -5 12
-21 12 -17 0 -22 -3 -15 -10 15 -15 12 -26 -6 -26 -8 0 -22 -7 -31 -16 -9 -8
-23 -12 -31 -9 -9 3 -13 3 -9 -1 9 -9 -47 -44 -71 -44 -12 0 -13 -3 -4 -8 9
-6 4 -15 -18 -31 -17 -12 -34 -20 -39 -17 -12 8 -34 -21 -26 -34 3 -5 1 -10
-4 -10 -6 0 -11 -7 -11 -16 0 -10 -5 -14 -16 -10 -8 3 -12 2 -9 -4 3 -5 0 -24
-8 -42 -24 -54 -37 -100 -31 -110 3 -5 1 -15 -6 -23 -8 -10 -8 -15 0 -20 7 -4
9 -19 5 -37 -4 -17 -3 -28 2 -25 5 3 19 -14 32 -39 13 -24 28 -41 34 -37 6 4
8 0 4 -11 -4 -10 -7 -20 -7 -22 0 -2 -7 -4 -15 -4 -8 0 -21 13 -30 30 -21 40
-19 46 7 24 l22 -19 -20 27 c-18 25 -19 26 -28 7 -8 -16 -16 -18 -55 -13 -40
5 -49 2 -74 -21 -15 -14 -32 -23 -37 -20 -6 3 -10 -1 -10 -10 0 -9 5 -13 11
-9 8 5 8 1 0 -14 -15 -29 -14 -68 4 -85 8 -8 11 -17 8 -21 -4 -3 1 -6 11 -6 9
0 14 -4 11 -10 -3 -5 2 -11 12 -12 10 0 23 -2 28 -3 6 -2 17 -3 25 -4 12 -1
13 -3 1 -10 -7 -5 -14 -24 -15 -42 -2 -19 -7 -33 -14 -32 -6 2 -14 -6 -17 -17
-4 -11 -11 -18 -16 -15 -5 4 -9 -1 -9 -10 0 -9 5 -13 10 -10 6 4 10 -10 10
-35 0 -29 4 -39 12 -34 6 4 8 3 4 -4 -3 -6 1 -18 10 -27 9 -9 13 -19 9 -23 -4
-4 -10 -1 -12 6 -6 16 -23 15 -23 -2 0 -32 85 -92 178 -125 50 -18 98 -41 105
-52 8 -10 17 -16 20 -12 4 3 7 1 7 -5 0 -15 -17 -16 -26 -1 -4 7 -29 9 -73 4
-60 -6 -69 -4 -104 19 -37 25 -57 27 -57 5 0 -6 4 -8 9 -4 6 3 13 -1 18 -9 4
-8 24 -21 43 -29 l35 -15 -25 -10 c-14 -6 -21 -11 -16 -11 5 -1 4 -7 -2 -13
-10 -13 -16 -40 -13 -65 0 -7 13 -24 29 -40 15 -15 26 -31 25 -35 -2 -4 14 -6
35 -4 38 4 38 4 34 -26 -3 -21 -1 -29 7 -24 7 5 9 1 5 -8 -3 -9 -2 -16 2 -16
14 0 14 -184 0 -192 -8 -6 -8 -8 2 -8 8 0 12 -16 12 -46 0 -27 -4 -43 -10 -39
-5 3 -10 2 -10 -4 0 -5 -3 -16 -6 -25 -7 -18 43 -46 83 -46 21 0 31 -7 41 -27
6 -15 12 -31 12 -36 0 -18 90 -139 90 -120 0 4 4 4 8 -2 11 -15 47 -42 39 -29
-4 7 2 9 20 6 18 -3 24 -1 19 7 -4 6 -13 11 -20 11 -7 0 -36 21 -64 47 -37 34
-59 64 -72 99 l-19 52 37 26 c39 27 72 34 72 15 0 -15 57 -98 99 -142 39 -42
118 -87 151 -87 11 0 20 -5 20 -11 0 -18 -107 -2 -158 22 -23 12 -56 37 -72
57 -33 40 -39 29 -14 -24 21 -43 54 -69 66 -51 6 9 8 9 8 0 0 -7 7 -13 16 -13
8 0 13 -4 10 -8 -5 -8 -1 -9 78 -15 38 -3 54 0 69 14 24 22 17 34 -28 49 -19
6 -33 15 -30 20 3 4 -1 8 -8 7 -6 0 -20 1 -29 1 -17 2 -17 3 0 20 16 18 18 18
43 -2 15 -12 24 -25 21 -29 -2 -5 4 -4 15 1 14 8 25 6 43 -9 14 -10 32 -19 41
-19 9 0 22 -6 28 -14 7 -8 27 -17 46 -20 19 -4 35 -10 35 -15 0 -4 16 -13 35
-21 19 -7 36 -19 39 -27 3 -7 15 -13 26 -13 11 0 20 -4 20 -10 0 -5 5 -10 10
-10 19 0 72 -45 81 -68 5 -13 13 -21 18 -18 11 7 43 -28 34 -37 -3 -4 -3 -7 1
-7 4 0 21 13 39 30 18 16 35 30 39 30 4 0 10 9 13 20 4 11 11 18 16 15 5 -4
12 1 15 9 3 9 13 16 21 16 8 0 11 4 8 10 -3 5 0 10 7 10 7 0 33 14 57 30 24
17 46 28 48 26 2 -2 16 7 30 20 14 13 30 24 35 24 5 0 28 9 50 20 23 11 50 20
60 20 10 0 18 7 18 15 0 14 12 20 33 16 4 -1 15 5 23 14 9 8 22 15 30 15 8 0
12 5 9 10 -3 6 -2 10 4 10 6 0 20 10 32 23 12 12 19 15 14 7 -4 -8 4 -1 18 15
14 17 31 42 38 57 6 15 15 25 19 23 5 -3 12 -1 15 5 4 6 1 9 -7 8 -7 -2 -12 3
-10 10 1 8 -2 11 -7 8 -15 -10 -23 31 -11 54 14 26 24 26 17 0 -5 -18 -4 -18
19 -3 31 20 49 12 52 -21 1 -18 -2 -25 -10 -20 -7 5 -8 3 -3 -6 6 -10 4 -12
-8 -7 -10 3 -17 2 -17 -3 0 -6 6 -10 13 -10 6 -1 1 -10 -12 -20 -13 -11 -20
-20 -16 -20 3 0 -3 -13 -15 -30 -14 -20 -26 -27 -38 -23 -15 6 -15 5 -3 -10
12 -15 11 -17 -3 -17 -9 0 -16 -4 -16 -9 0 -5 -13 -23 -30 -41 -22 -24 -35
-30 -51 -25 -16 5 -19 4 -14 -5 5 -9 4 -11 -3 -6 -7 4 -22 0 -34 -8 -20 -14
-20 -16 -4 -22 42 -16 153 63 208 147 l31 49 59 0 c67 0 70 -7 39 -75 -21 -44
-116 -143 -128 -132 -3 4 3 25 15 46 32 57 27 70 -12 28 -39 -43 -104 -74
-171 -84 -35 -4 -49 -2 -56 8 -7 11 -9 10 -9 -4 0 -10 6 -19 13 -22 19 -6 128
-12 122 -7 -7 7 15 32 29 32 6 0 4 -5 -4 -11 -15 -10 -7 -9 53 7 11 4 17 0 17
-10 0 -9 5 -16 11 -16 5 0 7 5 3 12 -5 8 -2 9 9 5 12 -4 17 -1 17 11 0 15 2
15 10 2 5 -8 10 -12 11 -7 1 4 2 10 3 15 1 4 19 25 39 46 20 22 37 47 38 55 0
11 2 12 6 3 3 -7 0 -19 -6 -26 -8 -10 -5 -16 14 -24 14 -6 25 -18 25 -25 0
-19 65 -38 79 -24 6 6 11 7 11 2 0 -4 8 -1 18 8 16 15 18 15 18 -2 0 -12 -5
-17 -15 -13 -10 4 -13 1 -8 -12 4 -10 3 -15 -3 -11 -6 3 -10 -1 -10 -9 0 -15
-12 -21 -33 -17 -5 1 -6 -3 -2 -9 3 -6 12 -7 18 -4 7 4 -3 -9 -22 -29 -22 -23
-37 -33 -42 -26 -4 7 -9 7 -13 1 -3 -5 -23 -12 -44 -15 -26 -5 -38 -12 -39
-24 -1 -10 -3 -25 -5 -33 -2 -9 6 -16 20 -18 12 -2 22 -7 22 -12 0 -10 30 -8
74 5 29 8 66 38 66 53 0 5 15 19 33 32 17 13 29 20 25 15 -8 -8 33 -45 51 -45
18 0 58 45 53 60 -3 8 12 -2 32 -22 29 -29 43 -37 61 -32 17 4 24 1 28 -13 4
-17 5 -17 6 0 0 10 8 25 17 34 8 9 13 21 11 27 -6 14 36 14 55 -1 22 -17 46
-27 26 -11 -11 10 -14 19 -8 29 8 12 12 11 24 -6 9 -11 16 -15 16 -9 0 7 23
10 63 8 34 -1 68 2 75 8 8 7 17 7 27 -2 8 -7 15 -9 15 -6 0 4 9 2 20 -4 15 -8
20 -8 20 1 0 7 9 9 22 6 14 -4 27 1 39 14 10 12 23 18 28 14 7 -4 8 0 4 11 -5
12 -3 15 6 9 10 -6 11 -2 6 15 -6 17 -4 21 6 14 11 -6 12 -5 2 8 -7 8 -10 18
-6 21 3 4 1 7 -5 7 -7 0 -12 5 -12 11 0 5 5 7 12 3 8 -5 9 -2 4 11 -5 15 -4
16 9 5 8 -7 15 -9 15 -5 0 4 8 1 17 -6 11 -10 14 -10 9 -2 -4 7 -3 13 3 13 5
0 13 -5 16 -10 10 -16 25 -12 26 8 0 15 2 14 10 -3 8 -17 9 -16 6 7 -3 20 0
28 10 28 10 0 13 -6 9 -16 -3 -9 -6 -25 -6 -35 0 -13 -4 -18 -12 -13 -7 5 -8
3 -3 -6 5 -8 2 -17 -6 -24 -8 -6 -20 -23 -28 -38 -14 -27 -47 -44 -53 -26 -2
6 -10 2 -18 -8 -8 -10 -10 -15 -4 -11 8 5 11 -3 10 -24 -1 -27 3 -32 25 -36
33 -4 139 42 139 61 0 14 21 26 46 26 8 0 14 -6 14 -14 0 -17 18 -31 28 -21 3
3 1 10 -7 14 -8 5 -1 8 18 7 28 -1 46 -16 19 -16 -6 0 -8 -3 -5 -6 4 -4 14 -1
23 7 20 16 44 21 44 8 0 -6 5 -7 11 -3 8 5 8 1 0 -14 -7 -14 -8 -23 -1 -27 6
-4 8 -10 5 -15 -3 -4 16 -10 43 -12 26 -3 56 -8 67 -12 18 -7 18 -6 2 4 -9 6
-15 16 -12 21 4 5 11 7 16 4 5 -4 6 2 2 11 -5 14 -3 16 13 9 107 -45 131 -45
175 -2 19 19 41 37 49 40 12 4 11 6 -2 6 -10 1 -18 8 -18 17 0 14 2 15 17 3
15 -13 15 -12 4 9 -9 17 -9 22 1 22 9 0 9 3 -2 10 -13 9 -13 11 0 20 12 8 12
10 1 10 -10 0 -10 5 4 26 12 18 13 29 6 38 -6 7 -7 17 -3 21 4 5 -1 5 -10 2
-10 -4 -18 -2 -18 3 0 9 -22 7 -54 -6 -12 -4 -17 -4 -13 2 3 5 -3 10 -14 10
-10 0 -19 -3 -19 -7 0 -4 -8 -6 -17 -4 -74 15 -75 15 -63 30 8 10 9 15 2 15
-6 0 -9 6 -6 14 3 8 -5 21 -17 30 -28 19 -11 28 41 23 19 -3 49 2 67 10 18 7
33 10 33 7 0 -4 7 -1 15 6 10 9 15 9 15 1 0 -6 5 -11 11 -11 6 0 9 7 6 15 -8
20 54 69 66 52 6 -8 7 -6 3 6 -4 12 2 25 16 38 13 10 17 18 10 19 -9 0 -8 8 5
27 33 50 7 190 -42 227 -13 10 -22 23 -18 29 4 6 1 7 -7 2 -8 -5 -20 1 -32 16
-11 13 -17 18 -13 12 3 -8 -6 -6 -24 4 -16 10 -29 22 -28 28 1 5 -4 9 -12 7
-7 -1 -19 2 -25 8 -7 5 -16 7 -19 3 -4 -3 -7 -1 -7 5 0 7 -6 12 -14 12 -8 0
-18 5 -22 12 -4 7 -3 8 4 4 7 -4 12 -2 12 3 0 6 -5 11 -11 11 -20 0 -39 33
-27 48 8 9 8 16 1 23 -15 15 9 59 48 88 20 15 30 19 27 9 -5 -12 3 -13 42 -8
27 3 47 3 44 -2 -3 -4 0 -8 6 -8 6 0 9 -4 6 -9 -3 -5 1 -11 9 -15 8 -3 15 -15
15 -27 0 -24 35 -59 59 -59 9 0 23 4 31 10 9 6 17 5 23 -3 6 -9 7 -8 6 3 -1 8
-1 34 0 58 1 32 5 42 17 42 14 0 15 2 3 17 -11 13 -11 17 -1 21 10 3 10 7 1
18 -6 8 -9 14 -5 14 3 0 -4 11 -16 25 -17 20 -31 25 -65 25 -33 0 -42 3 -37
13 6 9 4 9 -8 -1 -10 -8 -24 -10 -39 -4 -13 4 -37 7 -54 5 -16 -1 -45 -3 -62
-5 -18 -1 -33 -5 -33 -9 0 -4 -15 -10 -34 -13 -19 -4 -37 -14 -40 -22 -3 -9
-13 -14 -21 -11 -10 4 -12 1 -8 -10 4 -9 2 -14 -3 -11 -13 8 -54 -9 -54 -23 0
-8 5 -7 17 2 15 13 15 12 4 -9 -7 -14 -18 -21 -26 -18 -8 3 -17 0 -21 -6 -4
-7 -3 -8 4 -4 13 8 15 -4 6 -28 -3 -9 -11 -13 -16 -10 -6 4 -5 10 3 15 9 5 -2
7 -28 5 -24 -2 -43 0 -43 6 0 5 -4 7 -8 4 -7 -4 -132 -7 -330 -7 -42 0 -74
-28 -69 -60 2 -13 10 -24 18 -24 8 -1 13 -6 11 -13 -1 -7 1 -12 5 -12 10 0 10
-93 1 -101 -7 -5 -9 -22 -7 -74 2 -73 -5 -175 -13 -175 -5 0 -8 -29 -5 -65 2
-36 0 -68 -4 -70 -4 -3 -6 6 -5 20 2 14 -3 36 -10 49 -9 19 -9 26 -1 31 7 3 0
3 -15 0 -23 -4 -26 -2 -21 12 5 13 1 12 -17 -5 -13 -12 -28 -22 -33 -22 -4 0
-7 -8 -6 -17 2 -27 0 -36 -16 -57 -13 -17 -17 -17 -32 -5 -11 9 -14 10 -9 1 5
-8 1 -12 -13 -12 -11 0 -23 5 -27 11 -5 8 -9 8 -14 -1 -8 -12 -7 11 5 223 6
107 18 163 33 153 4 -2 9 8 10 24 3 37 -18 44 -129 45 -81 0 -86 -1 -81 -20 4
-19 4 -19 -9 -2 -13 16 -14 16 -14 -7 0 -15 5 -22 13 -19 14 6 16 -9 2 -23 -6
-6 -2 -10 12 -11 19 -2 20 0 8 8 -13 9 -13 10 0 7 8 -3 16 -20 18 -40 3 -33 1
-36 -17 -31 -12 3 -19 9 -16 13 7 11 -51 24 -94 21 -26 -1 -32 2 -28 13 10 25
-32 96 -64 110 -31 13 -29 26 3 26 30 0 68 -45 68 -80 0 -20 5 -30 16 -30 12
0 14 7 9 33 -4 17 -7 40 -8 49 -1 9 -5 15 -8 12 -4 -2 -10 0 -14 6 -7 11 41
60 59 60 7 0 12 9 13 20 2 22 30 66 41 63 4 -1 15 7 24 17 12 13 14 20 5 29
-8 8 -7 11 6 11 21 0 12 27 -13 35 -12 4 -27 -3 -44 -20 -14 -14 -30 -25 -36
-25 -6 0 -8 -5 -5 -10 3 -5 2 -10 -4 -10 -19 0 -21 19 -2 25 11 3 32 22 48 43
30 40 30 39 32 80 2 24 3 25 10 7 7 -17 9 -16 13 11 3 24 1 31 -9 27 -9 -4
-11 0 -7 11 3 9 1 16 -4 16 -22 0 -40 31 -40 68 -1 34 2 39 17 35 11 -3 29 6
44 21 14 14 23 26 19 26 -4 0 -1 4 7 9 16 10 18 84 2 89 -6 2 -8 9 -5 14 4 7
2 8 -4 4 -15 -9 -16 6 -2 20 6 6 3 10 -9 10 -11 0 -17 -5 -13 -11 7 -12 -29
15 -40 30 -5 6 -8 5 -8 -3 0 -8 -9 -12 -22 -11 -13 2 -34 -3 -46 -10 -13 -7
-26 -10 -29 -7 -8 8 -33 -14 -33 -28 0 -6 7 -2 15 8 8 11 15 15 15 10 0 -17
-22 -33 -36 -27 -8 3 -11 9 -8 14 3 5 0 9 -5 9 -16 0 -51 37 -43 45 4 4 2 6
-3 4 -19 -4 -44 13 -38 27 3 8 1 14 -4 14 -6 0 -18 16 -29 35 -11 21 -21 30
-25 23 -13 -21 12 -63 80 -133 38 -38 73 -79 79 -89 9 -17 10 -16 16 11 10 42
37 64 88 70 52 6 85 -16 94 -64 11 -57 -61 -106 -100 -67 -9 8 -16 22 -16 29
0 19 45 66 55 57 5 -4 5 -1 1 6 -8 13 -39 2 -51 -19 -5 -7 -12 -6 -23 3 -14
10 -15 10 -4 -2 6 -8 12 -26 12 -41 0 -14 7 -46 15 -69 21 -58 19 -113 -5
-163 l-21 -42 39 42 c46 50 54 53 46 15 -23 -108 -48 -137 -182 -207 -99 -51
-130 -75 -161 -125 -36 -60 -27 -106 23 -124 15 -5 13 -1 -7 18 -31 29 -33 43
-11 74 35 50 124 8 124 -58 0 -42 -15 -66 -45 -74 -14 -4 -25 -11 -25 -16 0
-19 -55 -10 -92 16 -93 65 -71 227 51 368 60 71 85 137 79 207 -6 62 5 63 26
2 20 -58 21 -143 2 -188 -19 -44 -14 -45 13 -1 36 58 46 134 27 200 -18 60
-56 105 -164 195 -73 60 -104 108 -104 166 -1 30 4 50 13 56 22 14 32 6 35
-29 5 -41 28 -87 61 -121 21 -21 24 -22 17 -6 -10 26 -11 83 -1 115 7 21 6 22
-3 7 -6 -9 -16 -15 -21 -11 -6 3 -7 -5 -4 -23 6 -27 6 -27 -9 -9 -9 11 -14 28
-10 38 3 11 0 18 -8 18 -10 0 -9 3 2 10 11 7 11 10 2 10 -7 0 -10 5 -6 12 4 7
3 8 -4 4 -16 -10 -15 2 2 19 7 8 16 11 20 8 3 -4 6 -1 6 6 0 7 5 9 13 5 8 -5
7 -2 -2 10 -10 12 -16 14 -21 5 -15 -24 -112 -48 -170 -42 -199 21 -420 -8
-710 -93 -245 -71 -382 -126 -400 -159 -7 -14 -19 -25 -26 -25 -7 0 -15 -6
-17 -12 -4 -10 -6 -10 -6 0 -1 7 5 15 13 18 8 3 12 12 10 19 -10 26 245 170
398 226 211 77 456 112 636 90 184 -22 218 -24 258 -11 33 11 36 14 19 20 -11
4 -28 6 -38 4 -11 -2 -15 1 -11 9 5 8 3 8 -7 0 -16 -16 -127 -17 -166 -2 -15
6 -50 11 -76 10 -27 0 -59 4 -72 9 -15 6 -27 6 -30 0 -3 -5 -29 -9 -58 -8 -53
1 -89 -3 -187 -24 -30 -6 -63 -12 -72 -13 -10 -1 -21 -4 -24 -8 -4 -4 -24 -7
-45 -7 -20 0 -39 -5 -41 -11 -2 -6 -16 -12 -31 -12 -15 -1 -27 -6 -27 -10 0
-5 -5 -5 -11 -1 -6 3 -14 1 -18 -5 -4 -6 -18 -13 -30 -16 -13 -2 -29 -9 -35
-15 -7 -5 -16 -7 -19 -3 -4 3 -7 1 -7 -5 0 -6 -7 -9 -17 -5 -10 4 -14 2 -10
-4 5 -8 -5 -10 -28 -9 -27 3 -35 0 -31 -10 3 -9 0 -11 -11 -7 -10 4 -14 2 -10
-5 11 -16 -48 -43 -63 -28 -8 8 -10 7 -5 -6 4 -11 0 -18 -14 -23 -12 -3 -19
-9 -17 -13 2 -4 -7 -8 -20 -8 l-25 -2 28 26 c15 14 27 29 26 33 -2 4 6 10 16
14 10 3 21 15 24 26 3 11 15 23 26 26 11 3 18 9 15 14 -3 5 -2 8 3 7 4 -2 9 1
10 5 3 12 56 52 65 49 5 -1 8 2 8 7 0 5 10 13 21 16 16 5 18 9 9 15 -9 6 -7
10 9 15 11 3 26 3 32 0 6 -4 9 0 7 11 -2 10 2 19 7 19 6 0 16 4 23 8 6 5 16 6
21 3 4 -3 17 1 27 10 18 14 18 15 -3 4 -13 -6 -23 -8 -23 -6 0 10 79 46 104
48 14 1 22 6 20 10 -3 4 0 8 6 8 7 0 26 6 43 14 66 29 176 46 260 40 40 -3 88
-6 107 -6 28 1 31 -1 15 -8 -17 -7 -15 -8 10 -7 36 1 58 -5 66 -17 4 -5 20 -9
37 -10 17 0 28 -4 26 -7 -2 -4 13 -15 34 -26 21 -10 37 -23 35 -29 -2 -6 3
-11 11 -11 8 0 13 4 10 9 -3 4 2 8 10 8 10 0 13 -6 9 -17 -3 -10 -3 -15 2 -11
4 4 17 2 28 -3 14 -8 16 -13 7 -19 -7 -5 -2 -7 15 -7 15 0 30 -4 34 -9 3 -5
17 -10 30 -12 42 -4 20 49 -49 117 -40 39 -59 65 -54 73 5 9 3 9 -9 -1 -10 -8
-17 -9 -17 -3 0 6 -9 14 -20 17 -11 4 -17 11 -14 17 5 7 1 9 -9 5 -12 -4 -17
-1 -18 11 0 10 -3 12 -6 5 -2 -7 -9 -13 -14 -13 -6 0 -7 5 -4 10 3 6 -2 10
-12 10 -10 0 -36 9 -58 20 -21 11 -44 19 -50 18 -5 -1 -32 2 -60 7 -27 4 -68
9 -90 9 -34 1 -39 4 -37 21 2 11 9 23 15 27 7 4 8 8 2 8 -6 0 -9 21 -7 47 1
27 3 55 3 63 0 78 -4 110 -12 110 -5 0 -19 21 -30 48 -11 26 -27 54 -34 62 -7
8 -14 20 -15 25 -1 6 -11 9 -22 7 -18 -2 -19 0 -7 15 13 15 12 15 -8 5 -22
-12 -64 -5 -44 7 5 4 -46 7 -114 7 -68 0 -119 -4 -112 -8z m231 -38 c40 -13
71 -29 81 -43 29 -41 57 -150 60 -232 3 -108 -9 -153 -19 -68 -7 63 -41 175
-69 230 -26 49 -77 68 -182 68 l-90 0 -135 -67 c-127 -64 -254 -106 -265 -88
-10 16 43 76 95 108 69 41 94 42 55 2 -44 -46 -12 -37 91 23 49 30 110 61 134
70 64 22 165 21 244 -3z m-420 -19 c3 -4 -19 -11 -49 -14 -64 -6 -145 -42
-195 -84 -38 -33 -32 -1 -59 -328 -6 -71 -14 -142 -17 -156 l-5 -26 93 -11
c51 -6 126 -14 165 -18 l73 -6 77 50 c105 67 223 125 308 151 99 31 259 39
344 16 106 -27 209 -86 295 -166 86 -80 89 -103 4 -40 -61 47 -146 90 -238
122 -55 20 -86 23 -210 23 -138 1 -149 -1 -240 -32 -100 -35 -225 -101 -300
-160 -25 -20 -97 -88 -160 -151 -163 -164 -269 -221 -410 -221 -83 0 -123 15
-180 66 -114 103 -109 233 14 362 58 62 281 210 295 196 3 -3 -3 -10 -14 -16
-11 -5 -64 -55 -118 -110 -118 -122 -167 -210 -167 -301 0 -45 5 -61 26 -87
54 -64 137 -81 239 -49 70 21 128 60 214 142 62 60 72 74 46 63 -18 -6 -112
10 -178 31 l-48 16 6 41 c27 209 35 274 40 356 4 52 8 113 10 135 2 22 4 52 4
66 1 45 76 110 154 135 48 14 173 18 181 5z m286 -51 c0 -5 5 -10 11 -10 5 0
8 4 5 8 -4 7 14 7 84 -3 14 -2 29 -4 34 -4 4 -1 5 -9 2 -18 -4 -10 -4 -14 0
-11 10 11 44 -37 46 -66 1 -14 6 -26 10 -26 4 0 7 -3 6 -7 -3 -11 32 -144 43
-165 14 -28 11 -34 -21 -36 -17 -1 -49 -9 -72 -17 -23 -7 -46 -11 -51 -8 -6 3
-7 2 -4 -4 4 -6 -6 -10 -23 -11 -16 0 -40 -8 -54 -17 -15 -10 -34 -14 -48 -10
-18 5 -20 4 -8 -4 12 -9 13 -11 1 -11 -8 0 -23 -8 -34 -17 -11 -10 -17 -12
-13 -5 4 6 3 12 -2 12 -6 0 -12 -6 -15 -14 -8 -21 -79 -39 -89 -23 -4 7 -8 7
-8 1 0 -5 5 -15 12 -22 9 -9 8 -12 -4 -12 -9 0 -23 -8 -30 -18 -14 -20 -45
-42 -35 -24 5 7 -1 6 -17 -1 -13 -7 -22 -16 -19 -21 4 -5 1 -6 -6 -1 -7 4 -44
7 -82 7 -48 -1 -67 3 -63 10 5 7 -5 9 -32 4 -22 -4 -34 -3 -27 2 8 5 0 8 -21
8 -19 0 -33 -4 -30 -8 3 -4 -2 -5 -10 -2 -13 5 -15 20 -10 87 3 45 7 96 9 112
3 17 7 64 11 105 4 41 10 76 14 78 4 1 6 18 4 37 -2 25 2 35 12 35 7 0 11 6 8
13 -3 8 1 19 8 25 11 8 13 5 12 -16 0 -14 -6 -28 -12 -30 -7 -2 -12 -8 -12
-13 0 -6 5 -7 10 -4 6 3 10 2 10 -4 0 -5 -6 -12 -12 -14 -8 -3 -6 -6 5 -6 9
-1 17 -5 17 -11 0 -11 76 -6 111 9 52 21 65 24 84 22 17 -2 17 0 5 8 -13 10
-13 11 0 11 8 0 37 11 64 25 27 14 55 25 62 25 6 0 15 7 18 16 3 8 10 12 16 9
5 -3 10 -1 10 5 0 7 8 9 20 5 11 -3 20 -2 20 4 0 8 18 14 68 20 6 0 12 -3 12
-9z m-435 -28 c-3 -3 -11 0 -18 7 -9 10 -8 11 6 5 10 -3 15 -9 12 -12z m-31
-27 c-4 -8 -11 -15 -16 -15 -6 0 -5 6 2 15 7 8 14 15 16 15 2 0 1 -7 -2 -15z
m753 -37 c-3 -8 -6 -5 -6 6 -1 11 2 17 5 13 3 -3 4 -12 1 -19z m-963 -355
c-28 -94 -34 -227 -11 -253 15 -18 15 -20 -1 -29 -22 -13 -7 -14 17 -2 11 6
32 5 62 -4 24 -7 57 -16 72 -20 15 -3 25 -10 22 -15 -4 -6 -11 -8 -16 -4 -5 3
-8 2 -7 -3 2 -5 -7 -21 -18 -36 -16 -19 -27 -25 -40 -20 -12 4 -15 3 -10 -5 4
-7 1 -15 -8 -18 -9 -3 -13 -10 -10 -15 3 -5 -3 -6 -12 -2 -13 5 -15 3 -9 -7 6
-10 3 -12 -13 -8 -12 4 -20 3 -17 -2 8 -13 -47 -30 -105 -31 -72 -2 -92 2
-109 24 -7 10 -24 23 -38 28 -16 6 -23 14 -19 24 3 8 1 15 -3 15 -8 0 -7 25 1
103 1 9 5 17 9 17 4 0 9 10 12 21 4 15 11 20 22 16 13 -5 14 -3 5 13 -6 11 -7
20 -2 20 5 0 15 11 22 25 7 14 17 25 22 25 5 0 6 -5 2 -12 -4 -7 -3 -8 4 -4 6
4 8 14 5 23 -4 11 -3 14 6 9 8 -6 11 -2 9 10 -2 10 3 19 10 19 8 0 19 8 26 17
7 10 17 14 21 10 5 -4 5 -2 2 5 -11 17 4 45 20 39 8 -3 12 -2 9 3 -3 5 2 15
11 22 14 12 16 12 9 -1 -5 -8 4 0 20 17 16 18 32 33 36 33 3 0 0 -21 -8 -47z
m1253 -300 c-3 -5 12 -8 34 -8 21 0 39 4 39 9 0 5 6 3 13 -3 8 -6 18 -7 22 -3
5 4 6 3 3 -3 -8 -14 9 -127 20 -134 14 -9 11 -43 -3 -37 -7 2 -12 -3 -11 -11
0 -9 -5 -18 -12 -20 -7 -3 -10 1 -6 11 4 9 0 18 -9 22 -9 3 -13 12 -10 20 3 8
0 14 -7 14 -7 0 -10 7 -6 15 6 17 -35 59 -62 62 -40 5 -56 10 -60 21 -2 7 -8
12 -13 12 -6 0 -8 -4 -5 -9 8 -12 -45 0 -70 16 -14 9 -32 11 -50 7 -26 -7 -28
-6 -15 9 11 14 32 17 113 17 54 0 97 -3 95 -7z m-234 -10 c-7 -2 -19 -2 -25 0
-7 3 -2 5 12 5 14 0 19 -2 13 -5z m-3 -28 c47 -8 126 -24 177 -36 l91 -21 17
-50 c20 -61 49 -109 104 -167 22 -24 41 -46 41 -47 0 -2 -15 -27 -33 -56 -76
-123 -107 -229 -107 -368 0 -52 7 -122 15 -155 13 -57 13 -62 -9 -110 -12 -27
-27 -61 -33 -75 -9 -23 -12 -19 -40 55 -44 115 -57 199 -50 324 7 122 25 195
73 300 l34 73 -26 31 c-14 16 -38 56 -54 88 l-29 57 -73 17 c-130 30 -280 45
-438 44 -85 -1 -166 -5 -180 -9 l-25 -8 25 -1 c20 -1 22 -3 10 -11 -13 -9 -13
-10 0 -11 9 0 11 -2 3 -5 -7 -3 -22 0 -34 6 -15 8 -19 9 -15 1 10 -15 -7 -14
-23 2 -11 10 -13 10 -7 0 4 -8 1 -13 -7 -13 -8 0 -29 -3 -46 -6 -50 -10 -29
22 24 35 24 6 47 16 50 21 4 6 10 8 13 6 4 -2 100 20 212 49 113 30 216 54
230 54 14 1 63 -6 110 -14z m-423 -128 c3 -4 -10 -7 -31 -7 -20 0 -35 4 -32 8
5 9 53 8 63 -1z m160 6 c-4 -3 -39 -7 -78 -9 -44 -1 -66 2 -58 7 16 10 146 12
136 2z m63 -3 c0 -5 -8 -10 -17 -10 -15 0 -16 2 -3 10 19 12 20 12 20 0z
m-658 -34 c-11 -11 -27 -37 -37 -56 -10 -19 -33 -56 -51 -82 l-33 -47 29 -59
c51 -103 74 -211 74 -347 0 -67 -5 -143 -13 -172 l-13 -53 -49 0 c-46 0 -50
-2 -68 -37 -10 -21 -22 -49 -26 -63 -4 -14 -17 -45 -27 -70 -19 -43 -20 -44
-29 -21 -8 19 -1 42 35 115 91 186 99 352 28 546 -18 50 -65 135 -90 163 -14
16 -14 19 1 35 14 14 21 14 37 4 11 -6 42 -12 70 -12 45 0 52 3 60 26 13 34 6
44 -36 44 -41 0 -45 16 -6 24 27 7 154 75 139 76 -5 0 -5 5 -2 10 4 6 11 8 16
4 6 -4 3 -15 -9 -28z m753 24 c-3 -5 -16 -10 -28 -10 -18 0 -19 2 -7 10 20 13
43 13 35 0z m30 0 c-4 -7 3 -9 22 -5 26 5 26 5 5 -5 -25 -11 -46 -5 -37 11 4
5 8 9 11 9 3 0 2 -5 -1 -10z m471 -16 c-3 -8 -1 -14 5 -14 5 0 9 -8 7 -17 -2
-11 4 -17 17 -18 32 0 99 -60 91 -81 -6 -14 -4 -15 10 -3 14 11 19 10 35 -11
20 -27 25 -45 9 -35 -5 3 -10 1 -10 -4 0 -6 -18 -22 -40 -36 -22 -14 -40 -32
-40 -40 0 -8 -11 -25 -25 -39 -14 -14 -25 -32 -25 -41 0 -9 -4 -13 -10 -10 -5
3 -10 1 -10 -5 0 -6 -4 -8 -10 -5 -6 3 -7 -1 -4 -10 4 -10 2 -15 -7 -13 -7 2
-14 -4 -14 -12 -2 -29 -30 -77 -42 -73 -7 3 -13 9 -13 14 0 6 4 8 9 5 5 -3 9
4 10 17 1 40 4 57 11 57 8 0 24 58 21 73 -1 5 2 6 7 3 4 -2 18 16 32 40 16 31
28 43 38 39 12 -4 12 -3 3 9 -13 15 -4 49 10 40 5 -3 9 -1 9 5 0 5 -9 13 -20
16 -20 6 -26 20 -12 28 4 2 2 3 -4 1 -19 -4 -37 13 -39 38 -1 12 -8 22 -14 21
-6 -2 -11 2 -11 8 0 5 -4 7 -10 4 -18 -11 -10 22 10 40 11 10 17 22 13 28 -4
6 -1 7 6 3 7 -5 10 -14 7 -22z m-1083 -1 c3 -5 -9 -9 -26 -10 -26 -1 -28 0
-12 7 26 11 33 12 38 3z m707 3 c0 -2 -11 -6 -25 -8 -13 -3 -22 -1 -19 3 5 9
44 13 44 5z m-1459 -23 c16 -9 35 -33 43 -52 8 -20 15 -31 15 -25 1 6 10 23
22 38 l20 26 33 -25 c18 -14 41 -25 51 -25 13 0 6 -12 -28 -49 -78 -83 -95
-187 -47 -282 24 -47 33 -51 18 -8 -14 42 -5 162 16 193 18 29 21 40 6 31 -6
-4 -6 3 1 18 6 14 22 30 36 36 15 7 23 17 20 26 -7 16 18 41 27 26 3 -5 3 -11
-1 -14 -5 -2 -3 -3 3 -1 6 1 16 -2 22 -8 8 -8 9 -4 5 12 -5 18 -3 21 8 14 16
-10 59 -13 59 -4 0 4 6 7 14 7 21 0 8 -22 -22 -38 -38 -19 -47 -31 -49 -56 -1
-13 5 -23 18 -26 11 -3 19 -9 18 -14 -3 -19 2 -34 10 -29 4 3 8 -5 7 -17 -1
-12 9 -30 21 -40 22 -18 33 -44 13 -32 -6 3 -7 -1 -4 -9 3 -9 11 -16 16 -16 6
0 7 -7 4 -16 -4 -10 -2 -13 6 -8 7 5 9 0 6 -14 -4 -15 -2 -22 8 -22 8 0 14
-10 14 -22 0 -13 3 -34 7 -47 4 -15 2 -22 -4 -18 -6 4 -13 21 -17 39 -4 20
-10 28 -16 22 -6 -6 -4 -24 5 -49 14 -40 21 -164 8 -151 -4 3 -8 16 -10 27 -5
34 -32 80 -102 174 -78 105 -82 113 -86 182 -2 28 -8 60 -15 70 -10 16 -11 16
-7 -4 3 -13 0 -23 -5 -23 -17 0 -3 -112 20 -157 12 -22 44 -67 72 -99 105
-123 123 -274 41 -348 -17 -15 -24 -17 -33 -8 -7 7 -38 12 -69 12 -63 0 -69 6
-69 66 0 66 76 108 122 67 24 -22 23 -51 -4 -82 l-23 -25 24 15 c31 20 40 46
29 86 -14 52 -78 108 -185 161 -110 56 -145 88 -168 151 -27 77 -16 108 18 51
10 -16 26 -34 36 -40 18 -9 18 -8 0 27 -23 45 -24 130 -4 188 8 22 15 46 15
54 0 16 -28 51 -42 51 -4 0 1 -9 12 -20 23 -23 25 -39 7 -64 -30 -41 -117 -3
-112 48 9 75 79 108 146 69z m1279 7 c52 -6 137 -18 189 -27 86 -15 95 -19
110 -46 9 -16 28 -48 43 -70 l26 -41 -23 -45 c-53 -106 -69 -186 -70 -346 0
-167 17 -250 76 -366 16 -33 27 -68 24 -78 -9 -29 -64 -111 -74 -111 -23 0
-21 41 3 82 22 39 23 45 11 68 -8 14 -14 44 -15 66 0 31 -7 48 -26 67 -19 19
-29 45 -39 104 -29 161 -10 357 47 499 25 59 25 61 7 83 -11 13 -19 29 -19 37
0 25 -44 42 -155 61 -160 26 -467 24 -624 -5 -63 -12 -117 -25 -121 -29 -4 -4
-17 -27 -30 -50 l-23 -42 31 -93 c44 -134 56 -213 49 -342 -7 -140 -19 -182
-52 -188 -30 -6 -29 -8 -9 79 12 52 15 97 11 188 -7 132 -24 209 -67 300 l-29
60 33 50 c18 27 38 59 44 71 9 17 32 24 149 42 76 12 154 23 173 25 77 8 260
6 350 -3z m285 -10 c-3 -5 -12 -10 -18 -10 -7 0 -6 4 3 10 19 12 23 12 15 0z
m32 -16 c-3 -3 -12 -4 -19 -1 -8 3 -5 6 6 6 11 1 17 -2 13 -5z m13 -24 c0 -5
-2 -10 -4 -10 -3 0 -8 5 -11 10 -3 6 -1 10 4 10 6 0 11 -4 11 -10z m-1216 -26
c3 -8 2 -12 -4 -9 -6 3 -10 10 -10 16 0 14 7 11 14 -7z m962 -13 c13 -12 74
-22 74 -12 0 5 9 7 20 4 11 -3 20 -9 20 -13 0 -5 9 -6 19 -3 21 5 47 -29 36
-47 -4 -6 -1 -9 7 -8 8 2 12 -4 10 -16 -2 -11 1 -15 7 -11 8 4 7 -2 0 -19 -7
-14 -15 -24 -18 -21 -4 2 -7 -4 -8 -13 -1 -9 -7 -37 -13 -62 -13 -49 -17 -71
-19 -113 0 -16 -4 -26 -8 -24 -5 3 -7 -29 -6 -71 2 -48 -2 -81 -10 -90 -9 -12
-9 -14 0 -8 9 5 12 -3 11 -31 -1 -21 2 -64 6 -95 7 -61 6 -64 -24 -48 -15 8
-18 7 -15 -2 4 -10 -15 -12 -87 -8 -51 3 -95 5 -97 3 -2 -2 2 -3 9 -3 8 0 4
-8 -9 -19 -22 -19 -20 -48 4 -63 14 -8 14 -185 1 -207 -6 -9 -5 -12 2 -7 8 5
8 -2 1 -24 -6 -17 -9 -37 -6 -44 9 -22 -24 -13 -35 10 -9 18 -9 18 6 0 9 -11
16 -15 16 -9 0 6 -9 22 -21 37 -11 14 -17 26 -14 26 4 0 2 6 -4 14 -6 7 -9 21
-5 30 3 9 1 16 -5 16 -6 0 -11 8 -11 18 0 10 -5 23 -11 29 -9 9 -8 20 2 45 8
18 13 37 11 42 -1 4 3 14 9 22 8 10 8 18 1 27 -11 13 -9 148 2 166 4 5 2 12
-3 15 -11 7 -8 376 3 394 4 7 2 20 -6 29 -9 12 -9 15 -1 9 8 -4 11 -2 8 6 -3
8 1 22 10 33 13 17 16 18 26 5 9 -13 10 -12 5 3 -4 11 1 20 12 24 26 10 42 35
37 60 -2 16 2 23 18 26 12 2 24 5 28 6 3 0 9 -3 15 -8z m31 3 c-3 -3 -12 -4
-19 -1 -8 3 -5 6 6 6 11 1 17 -2 13 -5z m-927 -25 c0 -12 -87 -12 -94 0 -3 4
-4 10 -1 12 7 8 95 -3 95 -12z m419 0 c-7 -13 -6 -19 1 -19 20 0 29 -44 11
-57 -10 -8 -12 -12 -4 -13 7 0 18 9 25 19 10 16 14 17 25 5 8 -8 11 -18 8 -24
-4 -6 -3 -10 2 -9 22 4 30 -3 31 -28 0 -16 1 -30 2 -33 7 -22 3 -260 -5 -260
-5 0 -5 -4 2 -8 8 -5 10 -43 7 -127 -5 -167 -4 -186 8 -179 18 11 6 -54 -17
-98 -14 -26 -24 -53 -23 -60 2 -8 -5 -12 -15 -10 -15 3 -17 0 -8 -17 14 -26
14 -34 -1 -25 -8 5 -9 0 -6 -14 4 -12 1 -25 -4 -29 -7 -3 -8 -1 -4 5 5 8 1 10
-9 5 -12 -4 -13 -8 -5 -13 9 -6 8 -16 -6 -41 -11 -19 -25 -38 -32 -42 -7 -5
-10 -13 -6 -18 3 -6 -5 -7 -23 -3 -39 9 -44 14 -36 27 3 7 -3 4 -14 -6 -18
-16 -21 -16 -27 -2 -4 11 -2 14 7 9 6 -4 4 2 -6 13 -26 30 -14 70 23 75 22 3
27 1 23 -11 -3 -12 -1 -11 7 2 6 9 27 24 46 32 18 8 34 19 34 25 0 6 5 8 10 5
10 -6 15 15 10 44 -1 11 1 12 12 4 11 -9 13 -2 13 37 0 27 -4 46 -9 43 -5 -4
-6 -1 -2 5 4 7 2 20 -3 29 -6 10 -11 15 -11 11 0 -4 -13 6 -29 22 -20 21 -44
33 -81 40 -65 12 -69 12 -50 -1 11 -8 7 -9 -20 -5 -36 7 -55 25 -40 40 4 4 6
14 3 22 -2 7 3 38 12 69 8 31 13 61 9 67 -4 6 -6 37 -5 70 1 35 -2 58 -8 58
-6 0 -11 9 -11 20 0 11 5 20 10 20 6 0 10 8 10 18 0 14 -2 15 -10 2 -8 -12
-10 -10 -11 10 0 14 -2 34 -5 45 -2 11 -6 31 -7 45 -2 14 -8 24 -14 23 -6 -1
-10 5 -9 14 1 8 -5 31 -15 50 -16 32 -16 36 -1 66 9 18 20 34 25 35 4 2 5 7 2
12 -5 7 19 11 83 13 17 0 32 4 32 9 0 4 25 7 55 7 50 -2 53 -3 44 -20z m389 7
c8 -21 -3 -38 -33 -51 -64 -26 -66 -40 -63 -430 2 -190 0 -345 -4 -345 -3 0
-15 28 -25 63 l-18 62 -47 3 c-39 3 -47 0 -53 -17 -3 -12 -9 -21 -13 -21 -4 0
-7 143 -7 318 0 351 1 342 -62 369 -23 9 -33 20 -33 36 l0 22 178 -2 c97 0
178 -4 180 -7z m386 -31 c-4 -8 -8 -15 -10 -15 -2 0 -4 7 -4 15 0 8 4 15 10
15 5 0 7 -7 4 -15z m22 -58 c-2 -7 -5 -4 -5 6 -1 9 -6 17 -12 17 -5 0 -7 5 -3
11 9 15 28 -16 20 -34z m304 -62 c0 -45 -23 -90 -93 -182 -70 -92 -101 -155
-93 -191 5 -19 4 -23 -3 -12 -6 8 -13 11 -17 7 -4 -3 -2 -13 5 -21 7 -8 14
-33 17 -57 3 -24 8 -48 12 -53 12 -21 9 -32 -9 -32 -10 0 -16 2 -14 4 1 2 -6
35 -17 73 -12 45 -16 74 -10 82 5 7 12 41 16 76 7 74 37 135 108 218 28 32 57
73 66 91 20 42 32 41 32 -3z m-1445 -5 c4 -16 11 -32 16 -35 5 -4 9 -11 9 -18
0 -18 -17 4 -34 46 -8 20 -11 37 -6 37 4 0 11 -13 15 -30z m1093 -55 c-6 -14
-13 -24 -14 -22 -6 6 9 47 17 47 5 0 3 -11 -3 -25z m-1040 -85 c5 -38 -14 -11
-22 30 -5 30 -4 32 6 15 7 -11 14 -31 16 -45z m1019 18 c-3 -8 -6 -5 -6 6 -1
11 2 17 5 13 3 -3 4 -12 1 -19z m-16 -91 c-7 -7 -9 -1 -7 19 7 54 9 59 13 25
3 -18 0 -38 -6 -44z m694 34 c3 -5 1 -12 -5 -16 -6 -4 -8 -10 -5 -15 7 -12 -5
-40 -17 -40 -6 0 -5 7 2 15 7 9 10 18 7 22 -4 3 -11 -6 -18 -19 -6 -14 -31
-38 -55 -53 -24 -16 -42 -30 -39 -33 3 -3 11 0 17 6 15 15 28 16 28 2 0 -25
-53 -43 -130 -44 -44 -1 -80 2 -80 6 0 13 43 36 120 64 78 28 150 76 150 100
0 16 16 19 25 5z m1264 -3 c43 -10 50 -14 46 -32 -2 -12 -7 -47 -10 -78 -6
-55 -8 -58 -34 -58 -23 0 -28 6 -39 45 -21 79 -101 107 -188 65 -25 -13 -46
-31 -53 -48 -40 -101 -11 -154 127 -227 71 -38 132 -92 148 -132 46 -108 -24
-252 -136 -283 -74 -21 -259 -15 -298 9 -9 5 -11 26 -6 79 7 70 8 72 34 72 24
0 30 -6 42 -42 19 -59 54 -82 123 -80 110 3 151 51 146 173 -1 34 -52 84 -121
119 -129 66 -180 122 -180 201 0 111 57 185 170 220 39 12 173 10 229 -3z
m-2949 -18 c0 -5 -4 -10 -10 -10 -5 0 -10 5 -10 10 0 6 5 10 10 10 6 0 10 -4
10 -10z m-632 -17 c2 -7 -1 -13 -8 -13 -6 0 -9 4 -5 9 3 5 -3 12 -12 15 -15 4
-15 5 1 3 11 -1 21 -8 24 -14z m1794 -5 c-7 -7 -12 -8 -12 -2 0 14 12 26 19
19 2 -3 -1 -11 -7 -17z m-1162 -28 c-9 -6 -11 -13 -5 -17 11 -8 13 -68 4 -78
-8 -7 -20 106 -12 118 3 5 10 4 17 -3 8 -8 7 -13 -4 -20z m987 -72 l-1 -93 -9
57 c-8 50 -3 128 8 128 2 0 3 -42 2 -92z m-1160 50 c-3 -8 -6 -5 -6 6 -1 11 2
17 5 13 3 -3 4 -12 1 -19z m1330 0 c-3 -8 -6 -5 -6 6 -1 11 2 17 5 13 3 -3 4
-12 1 -19z m1345 -110 c-5 -83 -6 -86 -35 -81 -17 3 -27 13 -31 31 -11 53 -19
57 -123 62 -54 3 -99 6 -100 5 0 0 -4 -54 -8 -120 l-7 -120 66 3 c65 4 68 5
83 38 12 24 23 34 39 34 21 0 22 -2 17 -82 -6 -105 -6 -106 -36 -101 -18 4
-27 13 -31 34 -5 29 -6 29 -76 29 l-70 0 0 -47 c0 -27 -3 -84 -6 -128 l-7 -80
79 3 c119 4 122 5 151 68 20 45 29 55 46 52 12 -2 21 -6 20 -11 -1 -4 -5 -38
-9 -76 l-6 -68 -76 -7 c-41 -3 -137 -6 -214 -6 -111 0 -138 3 -138 14 0 8 11
17 24 20 31 8 33 17 46 256 5 107 13 214 16 236 5 44 -12 74 -42 74 -8 0 -14
7 -14 15 0 13 31 15 223 15 l223 0 -4 -62z m-2395 10 c-3 -8 -6 -5 -6 6 -1 11
2 17 5 13 3 -3 4 -12 1 -19z m-97 -2 c0 -8 -4 -17 -8 -20 -4 -2 -8 4 -8 15 0
10 4 19 8 19 4 0 8 -6 8 -14z m1435 -6 c-27 -12 -43 -12 -25 0 8 5 22 9 30 9
10 0 8 -3 -5 -9z m-1631 -47 c-3 -26 -10 -53 -15 -60 -6 -6 -13 -27 -16 -45
-3 -18 -10 -39 -15 -45 -6 -7 -7 -13 -4 -13 4 0 0 -7 -8 -16 -9 -8 -16 -22
-16 -29 0 -9 -6 -12 -15 -9 -8 4 -15 1 -15 -5 0 -6 5 -11 12 -11 6 0 8 -3 4
-7 -12 -12 -36 28 -36 58 0 14 8 33 17 40 15 12 16 12 8 -1 -5 -8 -10 -28 -11
-44 -2 -24 0 -26 8 -13 5 10 6 22 3 27 -6 10 31 72 47 78 4 2 8 13 8 23 0 11
4 18 9 15 5 -3 7 16 5 43 -4 41 -2 50 13 54 10 3 19 5 21 6 1 0 0 -20 -4 -46z
m2442 20 c-3 -10 -1 -25 5 -33 9 -13 10 -12 5 3 -6 20 2 47 16 47 5 0 6 -4 3
-10 -3 -5 -2 -10 4 -10 5 0 12 6 15 13 5 9 7 9 12 -1 3 -6 11 -9 17 -5 18 11
37 12 37 2 0 -4 8 -5 18 -2 15 6 16 5 2 -12 -8 -10 -10 -16 -3 -12 7 5 18 -6
29 -29 15 -32 20 -35 51 -32 25 3 32 1 29 -9 -3 -7 -3 -13 0 -13 3 0 10 14 16
31 10 29 12 30 21 13 6 -11 15 -22 21 -26 7 -5 6 -8 -3 -8 -8 0 -3 -8 12 -20
14 -11 30 -20 35 -20 6 0 14 -4 17 -10 3 -5 0 -7 -8 -4 -8 3 -18 1 -22 -5 -3
-6 1 -12 9 -12 34 -3 99 -33 90 -42 -4 -4 7 -10 25 -13 22 -5 30 -11 27 -21
-5 -11 -2 -11 17 -2 21 12 21 11 7 -6 -14 -17 -13 -18 4 -12 17 7 17 6 5 -9
-13 -16 -12 -16 10 -5 15 8 21 9 17 2 -4 -6 0 -11 9 -11 9 0 14 -4 11 -9 -4
-5 0 -12 6 -14 10 -4 10 -7 0 -15 -9 -6 -10 -16 -4 -32 10 -26 -11 -80 -31
-80 -7 0 -6 5 3 11 13 9 13 10 0 6 -8 -2 -14 -12 -13 -21 0 -11 -4 -15 -13
-12 -8 3 -14 1 -14 -4 0 -6 -5 -10 -11 -10 -5 0 -7 6 -3 13 6 9 4 9 -7 0 -7
-7 -24 -13 -38 -13 -21 0 -23 2 -11 11 12 9 11 10 -8 6 -14 -3 -20 -1 -15 6 4
6 0 8 -10 4 -18 -7 -37 18 -37 47 0 31 -33 56 -73 56 -21 0 -36 -4 -33 -9 3
-5 -2 -12 -11 -16 -10 -3 -19 -2 -21 4 -2 5 -10 7 -19 4 -8 -3 -19 0 -25 8 -8
11 -9 11 -5 -3 6 -18 -18 -32 -35 -21 -7 4 -8 1 -4 -6 5 -7 0 -19 -10 -27 -11
-9 -14 -13 -7 -10 21 11 24 -12 3 -27 -11 -7 -17 -17 -12 -22 4 -4 0 -6 -9 -2
-9 3 -22 0 -29 -6 -10 -9 -11 -9 -6 1 5 7 1 12 -9 12 -9 0 -13 -4 -10 -10 3
-5 1 -10 -4 -10 -6 0 -11 7 -11 16 0 14 -1 14 -16 0 -18 -18 -24 -19 -43 -7
-12 8 -13 20 -5 65 6 31 8 56 4 56 -3 0 -4 16 -2 35 4 33 6 35 41 35 36 0 84
-19 51 -20 -11 0 -10 -3 4 -11 15 -9 16 -13 5 -21 -10 -7 -7 -7 9 -3 12 3 22
2 22 -3 0 -18 52 1 67 25 18 28 26 190 9 200 -5 4 -6 0 -2 -8 5 -8 2 -8 -6 2
-7 9 -19 14 -25 12 -7 -3 -13 1 -13 9 0 10 -2 10 -9 -1 -5 -7 -20 -13 -33 -13
-21 0 -24 -5 -23 -28 1 -25 -1 -27 -42 -29 l-44 -1 6 77 c7 83 11 103 20 103
4 0 4 -8 1 -17z m-2746 -1 c0 -5 -11 -14 -24 -22 -13 -7 -32 -28 -42 -46 -10
-19 -22 -34 -26 -34 -14 0 -8 45 8 68 22 31 84 56 84 34z m483 -17 c4 -8 3
-16 -1 -19 -4 -3 -9 4 -9 15 -2 23 3 25 10 4z m994 -27 c-3 -8 -6 -5 -6 6 -1
11 2 17 5 13 3 -3 4 -12 1 -19z m492 1 c-16 -10 -23 -4 -14 10 3 6 11 8 17 5
6 -4 5 -9 -3 -15z m381 -17 c0 -5 -11 -14 -24 -20 -27 -12 -30 -31 -42 -294
l-6 -138 61 0 c53 0 66 4 87 25 13 13 27 38 30 55 5 24 12 30 31 30 22 0 24
-3 19 -27 -3 -16 -7 -47 -8 -70 l-2 -43 -100 -1 c-56 0 -131 -2 -168 -5 -56
-3 -68 -1 -68 11 0 8 7 15 15 15 27 0 32 34 39 232 7 192 7 197 -13 208 -40
21 -21 30 64 30 47 0 85 -4 85 -8z m-2355 -12 c3 -5 1 -10 -4 -10 -6 0 -11 5
-11 10 0 6 2 10 4 10 3 0 8 -4 11 -10z m2013 -31 c4 -19 -27 -34 -41 -20 -14
14 0 43 20 39 10 -2 19 -10 21 -19z m-2023 -14 c0 -23 -34 -33 -46 -14 -10 17
9 41 30 37 9 -2 16 -12 16 -23z m485 -35 c0 -5 -2 -10 -4 -10 -3 0 -8 5 -11
10 -3 6 -1 10 4 10 6 0 11 -4 11 -10z m529 -35 c40 -144 98 -314 113 -331 10
-11 18 -23 18 -27 0 -4 -31 -7 -70 -7 -68 0 -91 12 -49 25 19 6 20 12 15 48
-4 22 -9 44 -12 49 -3 4 -33 8 -68 8 l-63 0 -12 -39 c-12 -43 -7 -71 15 -71 8
0 14 -4 14 -10 0 -6 -28 -10 -65 -10 -37 0 -65 4 -65 10 0 6 4 10 10 10 5 0
16 12 24 28 11 21 111 281 130 337 2 6 15 10 30 10 21 0 28 -6 35 -30z m765
-141 c34 -123 55 -179 68 -187 35 -22 19 -32 -52 -32 -49 0 -70 4 -70 13 0 6
6 12 14 12 23 0 28 17 16 60 l-11 40 -63 0 c-58 0 -64 -2 -74 -25 -19 -41 -15
-72 10 -78 43 -12 6 -21 -92 -23 l-100 -2 -37 66 c-47 87 -61 102 -92 102 -26
0 -26 -1 -24 -67 1 -48 6 -69 17 -75 32 -18 14 -28 -49 -28 -60 0 -86 13 -51
26 10 4 15 43 20 157 7 157 4 187 -20 187 -8 0 -14 5 -14 11 0 7 37 10 114 7
105 -3 117 -5 140 -27 48 -45 26 -147 -35 -166 -21 -7 -20 -7 4 -33 14 -15 34
-46 46 -68 29 -59 48 -76 70 -64 18 9 46 69 127 272 35 87 42 98 64 98 24 0
27 -8 74 -176z m22 146 c8 0 14 -6 14 -12 0 -8 3 -9 8 -3 14 20 63 10 77 -15
7 -14 10 -29 7 -35 -4 -5 -7 -41 -8 -80 -1 -38 -3 -70 -4 -70 -2 0 -12 -74
-13 -97 -2 -24 -9 -23 -26 3 -11 18 -11 23 0 30 11 6 10 9 -4 15 -9 3 -17 16
-17 28 0 12 -4 26 -10 32 -12 12 -15 52 -5 79 5 15 4 16 -3 6 -8 -11 -11 -9
-17 8 -3 11 -3 26 1 32 5 8 3 9 -6 4 -10 -6 -11 -2 -6 19 4 16 3 25 -2 22 -6
-3 -12 2 -15 12 -2 9 -8 26 -13 37 -8 19 -7 19 10 3 9 -10 24 -18 32 -18z
m-1336 5 c0 -8 -7 -15 -15 -15 -13 0 -15 -25 -15 -165 0 -155 1 -165 20 -175
34 -18 12 -30 -56 -30 -65 0 -80 11 -44 30 19 10 20 21 20 153 l-1 142 -40
-105 c-22 -58 -45 -118 -51 -135 -13 -36 -9 -31 -34 -39 -18 -6 -25 6 -68 116
-26 68 -51 132 -56 143 -5 11 -6 -41 -3 -120 4 -121 8 -142 24 -157 10 -9 19
-18 19 -21 0 -3 -27 -7 -60 -9 -61 -3 -74 5 -43 27 14 10 16 33 14 166 -2 139
-4 156 -21 171 -11 9 -20 19 -20 22 0 3 26 6 58 6 l57 0 50 -130 c45 -117 65
-153 65 -118 0 7 21 65 47 130 51 129 38 117 136 126 9 1 17 -5 17 -13z m263
4 c53 -14 77 -44 77 -93 0 -23 -6 -52 -13 -66 -17 -34 -72 -60 -129 -60 l-48
0 6 -62 c5 -47 12 -67 28 -80 20 -17 20 -18 -36 -18 -31 0 -63 -3 -72 -6 -11
-4 -16 -1 -16 10 0 9 7 16 15 16 19 0 29 56 22 128 -4 31 -6 92 -7 135 0 62
-3 77 -15 77 -8 0 -15 7 -15 15 0 12 16 15 83 15 45 0 99 -5 120 -11z m1437
-16 c28 -23 31 -31 26 -61 -6 -38 -30 -70 -61 -82 -18 -6 -17 -9 12 -23 35
-19 43 -34 43 -86 0 -29 -7 -44 -31 -67 -29 -28 -34 -29 -145 -32 -63 -2 -114
0 -114 4 0 4 7 12 15 18 11 8 16 48 21 168 6 141 5 158 -10 164 -41 16 -7 24
98 24 109 0 116 -1 146 -27z m-1655 -23 c3 -11 11 -20 17 -20 6 0 6 -6 -2 -15
-7 -8 -8 -15 -3 -15 10 0 9 -102 -1 -118 -3 -6 -2 -13 4 -17 6 -4 8 -10 6 -14
-3 -4 -6 -28 -7 -53 -2 -37 -7 -48 -23 -52 -11 -3 -24 -2 -28 2 -11 11 -12
101 -3 131 6 18 5 22 -4 17 -9 -6 -10 5 -6 46 4 29 8 59 10 66 3 6 -1 12 -8
12 -6 0 -1 7 11 16 12 8 20 20 17 25 -4 5 -2 9 4 9 5 0 13 -9 16 -20z m1078
-84 c-3 -4 -9 -2 -14 5 -13 22 -11 31 5 17 8 -7 12 -17 9 -22z m-111 -51 c-2
-14 -8 -23 -12 -20 -4 3 -7 -3 -6 -13 1 -20 -25 -23 -32 -3 -3 8 0 11 7 7 6
-4 11 -2 11 5 0 10 28 49 35 49 1 0 0 -11 -3 -25z m-152 -97 c0 -10 5 -16 10
-13 6 3 11 0 11 -7 1 -7 3 -23 4 -36 1 -13 10 -31 20 -40 17 -16 17 -16 0 13
l-17 30 20 -25 c25 -30 23 -67 -3 -62 -9 2 -14 -1 -11 -6 3 -6 0 -12 -8 -15
-14 -6 -16 9 -3 30 4 6 3 14 -3 18 -6 4 -8 10 -5 15 3 5 1 11 -5 15 -6 4 -8
11 -5 16 3 5 -1 6 -9 3 -17 -7 -28 20 -24 64 2 33 28 34 28 0z m-984 -64 c-4
-13 -11 -23 -17 -21 -20 4 -18 -33 3 -47 38 -27 48 -49 31 -71 -15 -19 -15
-19 -8 3 5 16 3 22 -7 20 -8 -2 -12 4 -10 16 2 12 -1 16 -9 10 -8 -4 -10 -3
-5 4 4 7 1 12 -8 12 -10 0 -16 9 -16 25 0 14 -5 25 -11 25 -5 0 -7 5 -4 11 4
6 14 8 22 4 12 -4 13 -2 5 7 -11 14 9 53 21 41 4 -3 8 7 9 23 1 27 1 27 5 -5
3 -19 2 -44 -1 -57z m-153 4 c4 -11 2 -18 -6 -18 -8 0 -7 -4 3 -11 13 -9 13
-10 0 -6 -8 2 -15 9 -15 15 0 5 -3 14 -7 18 -5 4 -8 19 -8 33 0 24 1 25 13 6
8 -11 17 -28 20 -37z m805 43 c21 -2 26 -30 9 -49 -16 -18 -20 -65 -5 -56 11
7 39 -22 30 -30 -3 -4 1 -4 11 0 9 3 17 10 17 16 0 5 5 6 10 3 6 -4 8 -11 5
-16 -3 -5 1 -6 9 -3 9 3 14 10 11 14 -6 10 43 5 53 -5 4 -4 -4 -4 -17 0 -15 5
-21 4 -17 -3 7 -12 -30 -37 -56 -37 -10 0 -18 -4 -18 -10 -3 -27 -80 -26 -80
2 0 8 -4 12 -8 9 -5 -3 -23 4 -40 15 -18 10 -39 19 -47 19 -8 0 -15 4 -15 9 0
9 19 5 75 -14 19 -6 19 -6 2 5 -18 11 -18 13 2 27 l21 14 -20 29 c-11 15 -20
30 -20 33 0 15 31 33 52 31 12 -1 29 -3 36 -3z m526 -5 c-3 -8 -13 -17 -22
-21 -13 -5 -13 -2 3 15 21 24 26 25 19 6z m-1009 -66 c-3 -5 -11 -10 -16 -10
-6 0 -7 5 -4 10 3 6 11 10 16 10 6 0 7 -4 4 -10z m2518 -10 c8 0 7 -3 -1 -9
-8 -4 -13 -12 -11 -17 1 -5 -9 -15 -22 -21 -13 -7 -23 -18 -21 -24 1 -6 -2 -8
-8 -4 -5 3 -10 0 -10 -8 0 -8 -7 -20 -15 -27 -14 -11 -14 -10 -5 16 9 26 9 27
-4 11 -14 -18 -15 -18 -24 0 -5 10 -8 24 -6 31 1 7 0 8 -3 2 -2 -5 -9 -10 -14
-10 -6 0 -7 5 -3 12 4 6 3 8 -3 5 -6 -4 -16 -1 -22 7 -9 11 0 13 53 12 35 -1
62 2 60 6 -3 5 2 8 11 8 10 0 13 5 9 12 -5 8 -2 9 10 5 10 -4 23 -7 29 -7z
m-2229 -49 c57 -27 124 -62 148 -79 l44 -30 45 30 c77 53 180 98 224 98 23 0
46 5 53 12 9 9 15 9 24 0 9 -9 4 -14 -21 -23 -66 -23 -227 -107 -272 -142
l-47 -35 -52 35 c-61 41 -243 133 -264 133 -11 0 -12 5 -3 25 7 14 13 25 15
25 2 0 50 -22 106 -49z m-103 -70 c102 -48 211 -107 243 -130 l58 -43 26 24
c46 43 84 65 259 153 l171 85 81 0 c45 0 81 -4 81 -9 0 -17 -168 -120 -295
-181 -165 -79 -299 -177 -317 -231 -2 -7 -23 8 -49 35 -63 69 -140 118 -317
203 -85 40 -182 95 -216 121 l-61 47 63 3 c45 2 65 7 69 18 4 11 8 12 13 5 3
-6 90 -51 191 -100z m1463 97 c-5 -8 -2 -9 10 -5 14 6 15 3 6 -14 -7 -11 -16
-17 -23 -12 -9 5 -9 3 0 -9 7 -8 9 -19 5 -23 -4 -5 -1 -5 6 -1 7 4 10 11 7 16
-7 11 20 32 30 22 5 -4 5 1 2 11 -6 15 -4 16 15 6 21 -11 21 -12 2 -22 -10 -6
-20 -9 -21 -6 0 2 -11 -8 -23 -24 -12 -15 -26 -25 -31 -22 -5 4 -9 -1 -9 -9 0
-8 -9 -20 -20 -26 -17 -9 -22 -7 -30 17 -6 15 -13 35 -17 43 -3 8 -7 18 -7 22
-1 3 -4 10 -8 14 -4 3 -5 -4 -3 -17 4 -23 4 -23 -10 -5 -8 11 -13 21 -11 23 5
6 48 15 74 16 12 1 22 5 22 9 0 4 9 8 21 8 13 0 18 -4 13 -12z m415 -13 c17
-2 31 2 31 8 0 6 7 5 15 -4 12 -12 13 -21 4 -47 -6 -18 -15 -32 -20 -32 -4 0
-6 -8 -2 -17 5 -15 3 -16 -8 -5 -15 14 -33 16 -25 3 3 -4 -6 -13 -19 -19 -19
-9 -26 -8 -32 1 -5 7 -28 13 -53 13 -32 -1 -44 3 -42 12 1 8 -1 11 -5 9 -5 -3
-8 15 -9 39 -1 45 4 52 22 34 12 -12 47 -2 38 11 -3 5 7 5 21 -1 20 -8 27 -7
32 6 4 12 8 13 13 3 5 -6 22 -13 39 -14z m173 1 c4 -6 -1 -16 -10 -24 -9 -7
-11 -10 -3 -6 10 5 12 3 6 -6 -6 -10 -11 -10 -20 3 -7 9 -16 13 -20 9 -5 -4
-5 1 -2 10 5 16 3 15 -27 -2 -30 -16 -33 -17 -32 -2 0 10 8 20 16 24 21 9 84
5 92 -6z m-873 1 c-2 -1 -12 -9 -22 -16 -15 -12 -17 -12 -11 3 3 9 13 16 22
16 8 0 13 -1 11 -3z m1291 -17 c11 -11 20 -26 20 -33 0 -19 -40 -59 -53 -54
-21 7 -19 34 3 40 36 9 21 41 -21 45 -46 4 -95 -35 -167 -131 -30 -40 -68 -86
-85 -104 -43 -46 -147 -92 -147 -65 0 4 17 14 39 23 45 19 81 84 92 164 10 81
-18 114 -72 85 -23 -13 -25 -55 -2 -64 12 -5 13 -10 5 -18 -17 -17 -42 9 -42
42 0 49 63 84 115 64 8 -4 23 -20 31 -36 20 -39 4 -111 -37 -167 -16 -22 -23
-38 -16 -35 6 2 37 39 67 81 82 114 111 144 155 164 52 24 90 24 115 -1z
m-2480 -31 c0 -9 -57 19 -65 32 -4 5 10 2 29 -8 20 -9 36 -20 36 -24z m1688
29 c7 -7 12 -19 12 -28 0 -24 -36 -54 -55 -46 -23 8 -13 30 14 34 30 5 21 26
-12 30 -76 9 -165 -102 -169 -213 -3 -52 13 -75 37 -55 11 9 19 10 26 3 18
-18 -18 -38 -49 -27 -55 19 -67 111 -22 174 35 50 17 45 -27 -7 -30 -36 -42
-63 -51 -108 -14 -67 -26 -85 -44 -67 -9 9 -9 22 0 57 15 55 16 122 2 130 -5
3 -10 -2 -10 -12 0 -31 -47 -119 -86 -163 -44 -49 -82 -70 -124 -70 -47 0 -38
26 12 33 23 3 53 14 67 24 66 49 144 211 121 253 -25 46 -97 54 -136 15 -28
-28 -28 -52 -2 -69 13 -8 23 -8 38 2 23 14 40 8 40 -13 0 -34 -72 -33 -99 1
-28 36 -26 60 8 95 55 55 159 31 194 -44 9 -19 17 -47 17 -61 0 -14 1 -26 3
-26 1 0 31 27 66 60 96 89 195 132 229 98z m328 -32 c6 -15 -24 -82 -32 -73
-3 2 0 17 6 32 6 15 9 30 6 32 -7 7 -26 -59 -20 -69 3 -5 -1 -17 -9 -26 -18
-21 -39 -82 -28 -82 4 0 13 12 19 26 7 14 17 22 22 19 12 -8 0 -33 -29 -59
-16 -15 -24 -16 -35 -7 -11 10 -19 9 -35 -1 -18 -11 -24 -10 -42 9 l-22 21 22
46 c22 45 54 67 73 48 15 -15 -1 -52 -28 -64 -26 -12 -33 -38 -10 -38 21 0 44
37 62 100 9 30 22 65 30 78 16 25 42 29 50 8z m398 -18 c3 -17 -1 -28 -10 -32
-19 -7 -29 -6 -27 5 2 4 -4 6 -12 3 -8 -4 -15 -1 -15 5 0 6 11 16 25 21 14 5
25 15 25 21 0 20 8 5 14 -23z m-2709 3 c-3 -5 4 -12 15 -16 22 -7 24 -14 13
-42 -6 -16 -8 -15 -13 7 -3 14 -11 25 -17 25 -6 0 -14 3 -18 7 -9 8 3 28 16
28 6 0 8 -4 4 -9z m2424 -7 c4 3 8 -1 8 -7 0 -7 -8 -14 -18 -14 -11 -1 -16 4
-14 15 5 27 6 28 12 14 2 -6 8 -10 12 -8z m-2072 0 c-3 -3 -12 -4 -19 -1 -8 3
-5 6 6 6 11 1 17 -2 13 -5z m1247 -11 c3 -6 -3 -14 -12 -18 -9 -3 -18 -1 -20
5 -3 7 -9 7 -20 -2 -13 -11 -15 -11 -7 2 6 12 5 13 -6 3 -17 -17 -26 -16 -33
3 -3 8 -2 12 4 9 6 -3 10 -1 10 5 0 14 78 8 84 -7z m-1175 -19 c14 -12 -19 -1
-35 12 -18 14 -18 14 6 3 14 -6 27 -13 29 -15z m1474 -8 c-4 -6 -8 -5 -11 2
-3 10 -7 10 -18 1 -8 -7 -17 -9 -21 -5 -3 3 -1 6 5 6 7 0 12 7 12 15 0 12 3
13 19 3 11 -7 17 -17 14 -22z m-1893 4 c0 -5 -5 -10 -11 -10 -5 0 -7 5 -4 10
3 6 8 10 11 10 2 0 4 -4 4 -10z m2841 -9 c-10 -7 -65 -141 -59 -146 11 -10
105 -35 133 -35 26 0 33 3 29 15 -4 9 0 15 10 15 23 0 20 -37 -3 -50 -31 -16
-72 -12 -128 15 -32 14 -53 19 -53 13 0 -38 -74 -65 -87 -33 -7 20 24 55 48
55 10 0 21 4 24 10 4 6 -4 9 -17 7 -20 -2 -23 2 -21 31 1 39 49 106 69 98 18
-7 45 4 38 15 -3 5 2 6 11 2 10 -3 13 -8 6 -12z m-1241 -1 c0 -5 -2 -10 -4
-10 -3 0 -8 5 -11 10 -3 6 -1 10 4 10 6 0 11 -4 11 -10z m-1550 -10 c0 -5 -4
-10 -10 -10 -5 0 -10 5 -10 10 0 6 5 10 10 10 6 0 10 -4 10 -10z m2290 -13 c0
-7 -4 -6 -10 3 -8 12 -10 12 -10 1 0 -8 -3 -12 -6 -8 -9 9 6 28 17 22 5 -4 9
-12 9 -18z m395 2 c0 -8 -8 -13 -17 -11 -12 2 -22 -12 -36 -50 -17 -47 -23
-53 -51 -56 -19 -2 -31 1 -31 9 0 9 -4 8 -15 -1 -25 -21 -48 -4 -41 31 10 54
43 89 81 89 l34 0 -13 -32 c-8 -18 -17 -44 -21 -58 -7 -22 -6 -23 8 -12 8 7
21 33 28 58 9 28 18 43 26 40 7 -3 15 -1 19 5 8 14 29 6 29 -12z m195 15 c0
-3 -6 -17 -14 -32 -21 -41 -28 -72 -18 -72 5 0 12 9 15 20 3 11 10 20 16 20 7
0 9 -10 5 -25 -5 -18 -2 -25 9 -25 23 0 26 22 8 53 -12 21 -13 32 -5 45 15 23
58 22 62 -2 3 -12 -1 -17 -10 -13 -7 2 -12 10 -10 16 1 6 -2 11 -8 11 -5 0
-10 -9 -10 -19 0 -11 5 -23 10 -26 6 -3 10 -19 10 -34 0 -34 -43 -60 -66 -40
-11 9 -18 8 -30 -2 -13 -10 -17 -10 -25 2 -8 12 -10 12 -18 0 -11 -17 -41 -7
-41 14 0 24 29 89 45 101 14 11 75 17 75 8z m-2200 -8 c0 -2 -8 -10 -17 -17
-16 -13 -17 -12 -4 4 13 16 21 21 21 13z m1175 -39 c-7 -18 -16 -43 -20 -57
-7 -21 -6 -23 7 -12 9 7 21 33 28 57 7 25 18 44 24 44 6 -1 19 1 29 6 41 17
44 -19 10 -105 -5 -13 -4 -13 10 -1 9 7 22 32 29 55 13 48 22 61 37 52 7 -5 4
-23 -8 -56 -11 -29 -15 -52 -10 -56 10 -6 32 40 44 89 7 28 35 38 35 13 0 -7
-7 -33 -15 -56 -18 -50 -18 -53 -5 -45 6 3 10 1 10 -4 0 -6 -4 -12 -10 -12
-41 -5 -77 -4 -87 3 -6 5 -14 5 -18 -2 -3 -5 -15 -10 -26 -10 -26 0 -25 35 2
79 11 18 18 36 14 39 -9 10 -25 -13 -44 -64 l-19 -49 -56 -1 c-31 -1 -59 3
-62 8 -11 17 6 75 29 100 18 19 31 24 54 21 31 -5 31 -6 18 -36z m-1285 -36
c0 -5 -12 -8 -26 -8 -18 0 -22 2 -13 8 18 11 39 11 39 0z"/>
<path d="M2460 2771 c0 -6 4 -13 10 -16 6 -3 7 1 4 9 -7 18 -14 21 -14 7z"/>
<path d="M2451 2644 c0 -11 3 -14 6 -6 3 7 2 16 -1 19 -3 4 -6 -2 -5 -13z"/>
<path d="M2310 2630 c-6 -11 -8 -20 -6 -20 3 0 10 9 16 20 6 11 8 20 6 20 -3
0 -10 -9 -16 -20z"/>
<path d="M2290 2586 c7 -7 13 -7 20 0 6 6 3 10 -10 10 -13 0 -16 -4 -10 -10z"/>
<path d="M2215 2539 c-4 -6 -5 -12 -2 -15 2 -3 7 2 10 11 7 17 1 20 -8 4z"/>
<path d="M3626 2127 c3 -10 9 -15 12 -12 3 3 0 11 -7 18 -10 9 -11 8 -5 -6z"/>
<path d="M3596 1443 c-6 -14 -5 -15 5 -6 7 7 10 15 7 18 -3 3 -9 -2 -12 -12z"/>
<path d="M3586 1382 c-3 -5 1 -9 9 -9 8 0 12 4 9 9 -3 4 -7 8 -9 8 -2 0 -6 -4
-9 -8z"/>
<path d="M3626 1377 c3 -10 9 -15 12 -12 3 3 0 11 -7 18 -10 9 -11 8 -5 -6z"/>
<path d="M3847 2059 c7 -7 15 -10 18 -7 3 3 -2 9 -12 12 -14 6 -15 5 -6 -5z"/>
<path d="M3710 1749 c0 -5 5 -7 10 -4 6 3 10 8 10 11 0 2 -4 4 -10 4 -5 0 -10
-5 -10 -11z"/>
<path d="M1840 2060 c-9 -6 -10 -10 -3 -10 6 0 15 5 18 10 8 12 4 12 -15 0z"/>
<path d="M2120 1947 c0 -17 49 -97 85 -137 25 -28 52 -62 61 -76 22 -32 42
-17 23 17 -7 13 -12 28 -11 33 2 5 -5 3 -14 -5 -15 -13 -16 -12 -9 10 4 15 3
21 -3 17 -5 -3 -15 1 -22 9 -7 8 -9 15 -5 15 4 0 -3 9 -17 19 -13 11 -33 38
-43 60 -10 23 -24 41 -32 41 -7 0 -13 -1 -13 -3z"/>
<path d="M3436 1942 c-3 -5 1 -9 9 -9 8 0 12 4 9 9 -3 4 -7 8 -9 8 -2 0 -6 -4
-9 -8z"/>
<path d="M3355 1540 c-3 -5 -1 -10 4 -10 6 0 11 5 11 10 0 6 -2 10 -4 10 -3 0
-8 -4 -11 -10z"/>
<path d="M3138 1360 c-26 -24 -22 -35 4 -10 12 11 20 22 17 24 -2 2 -12 -4
-21 -14z"/>
<path d="M3139 1323 c-13 -17 -13 -17 6 -3 11 8 22 16 24 17 2 2 0 3 -6 3 -6
0 -17 -8 -24 -17z"/>
<path d="M3150 1046 c0 -2 7 -9 15 -16 13 -11 14 -10 9 4 -5 14 -24 23 -24 12z"/>
<path d="M2616 1825 c-9 -26 -7 -32 5 -12 6 10 9 21 6 23 -2 3 -7 -2 -11 -11z"/>
<path d="M2891 1524 c0 -11 3 -14 6 -6 3 7 2 16 -1 19 -3 4 -6 -2 -5 -13z"/>
<path d="M2856 1287 c3 -10 9 -15 12 -12 3 3 0 11 -7 18 -10 9 -11 8 -5 -6z"/>
<path d="M2894 1253 c-3 -10 -10 -26 -15 -35 -14 -27 -11 -35 4 -13 14 21 28
65 21 65 -3 0 -7 -8 -10 -17z"/>
<path d="M5291 1094 c0 -11 3 -14 6 -6 3 7 2 16 -1 19 -3 4 -6 -2 -5 -13z"/>
<path d="M2975 1235 c-4 -11 -17 -48 -30 -82 l-23 -63 54 0 c62 0 60 -8 24
109 -14 45 -19 52 -25 36z m20 -113 c-3 -3 -11 0 -18 7 -9 10 -8 11 6 5 10 -3
15 -9 12 -12z"/>
<path d="M3288 1209 l-3 -81 45 5 c53 6 80 34 80 83 0 47 -29 74 -79 74 l-39
0 -4 -81z m43 42 c-8 -14 -7 -20 4 -24 9 -4 12 -1 9 7 -3 8 0 17 7 22 8 4 10
3 5 -4 -4 -7 -3 -12 2 -12 5 0 12 -11 14 -25 4 -18 1 -25 -11 -26 -12 0 -11
-2 4 -8 19 -8 19 -8 -4 -16 -13 -4 -27 -3 -33 3 -14 14 -17 74 -5 90 14 18 19
15 8 -7z"/>
<path d="M3693 1229 c-6 -19 -20 -58 -32 -86 l-21 -53 59 0 58 0 -19 63 c-11
34 -23 73 -27 86 -7 23 -7 22 -18 -10z"/>
<path d="M2630 1205 l0 -88 46 6 c60 6 79 26 79 82 0 55 -16 71 -77 80 l-48 7
0 -87z m87 32 c16 -12 11 -41 -12 -67 -30 -33 -44 -26 -38 20 4 27 2 40 -6 40
-8 0 -8 4 1 14 13 13 32 11 55 -7z"/>
<path d="M2705 1220 c3 -5 8 -10 11 -10 2 0 4 5 4 10 0 6 -5 10 -11 10 -5 0
-7 -4 -4 -10z"/>
<path d="M4008 1219 l-3 -71 49 5 c59 5 86 32 86 83 0 41 -21 54 -84 54 l-44
0 -4 -71z m56 36 c-4 -8 -1 -15 5 -15 6 0 11 7 11 15 0 13 2 14 14 3 8 -7 10
-14 5 -16 -5 -2 -9 -8 -9 -13 0 -4 7 -6 15 -3 8 4 15 2 15 -3 0 -18 -35 -39
-65 -41 -25 -1 -27 0 -12 9 9 5 17 18 16 27 0 14 -2 13 -9 -3 -8 -19 -9 -19
-9 2 -1 27 9 53 20 53 4 0 6 -7 3 -15z"/>
<path d="M4000 1045 l0 -75 48 0 c61 0 92 25 92 75 0 51 -28 75 -90 75 l-50 0
0 -75z m107 -10 c-6 -19 -12 -33 -15 -31 -2 3 -15 1 -28 -4 -21 -8 -24 -6 -28
23 -7 47 -4 65 10 63 8 -1 17 -5 20 -9 15 -15 26 -6 13 10 -13 15 -12 15 12
-1 25 -16 26 -20 16 -51z"/>
<path d="M2937 993 c-9 -8 12 -33 27 -33 6 0 3 5 -7 11 -9 6 -15 14 -12 20 7
10 2 12 -8 2z"/>
<path d="M4933 895 c0 -11 4 -12 11 -5 14 14 29 13 20 -2 -4 -7 -3 -8 5 -4 15
10 4 26 -18 26 -10 0 -18 -7 -18 -15z"/>
<path d="M2580 840 c-9 -6 -10 -10 -3 -10 6 0 15 5 18 10 8 12 4 12 -15 0z"/>
<path d="M2620 800 c-9 -6 -10 -10 -3 -10 6 0 15 5 18 10 8 12 4 12 -15 0z"/>
<path d="M4545 809 c-11 -16 -1 -19 13 -3 7 8 8 14 3 14 -5 0 -13 -5 -16 -11z"/>
<path d="M4577 746 c-10 -14 -13 -26 -8 -26 13 0 33 28 29 41 -2 6 -12 0 -21
-15z"/>
<path d="M5087 820 c-3 -11 -3 -20 -1 -20 2 0 8 9 14 20 6 11 7 20 2 20 -6 0
-12 -9 -15 -20z"/>
<path d="M5178 750 c-23 -36 -32 -70 -18 -70 13 0 43 67 37 83 -2 6 -11 0 -19
-13z"/>
<path d="M5132 618 c-14 -14 -16 -42 -2 -33 14 9 32 45 22 45 -4 0 -13 -5 -20
-12z"/>
<path d="M5008 750 c-22 -35 -32 -70 -19 -70 12 0 43 68 38 84 -2 6 -11 -1
-19 -14z"/>
<path d="M5267 735 c-19 -41 -21 -55 -7 -55 9 0 40 62 40 81 0 21 -17 7 -33
-26z"/>
<path d="M4255 720 c-18 -35 -19 -53 -3 -48 14 5 40 78 28 78 -5 0 -16 -13
-25 -30z"/>
<path d="M2568 3193 c7 -3 16 -2 19 1 4 3 -2 6 -13 5 -11 0 -14 -3 -6 -6z"/>
<path d="M2648 3193 c6 -2 18 -2 25 0 6 3 1 5 -13 5 -14 0 -19 -2 -12 -5z"/>
<path d="M5325 3190 c-3 -5 -1 -10 4 -10 6 0 11 5 11 10 0 6 -2 10 -4 10 -3 0
-8 -4 -11 -10z"/>
<path d="M185 3170 c-3 -5 -1 -10 4 -10 6 0 11 5 11 10 0 6 -2 10 -4 10 -3 0
-8 -4 -11 -10z"/>
<path d="M5161 3164 c0 -11 3 -14 6 -6 3 7 2 16 -1 19 -3 4 -6 -2 -5 -13z"/>
<path d="M5170 3139 c-17 -5 -19 -7 -7 -8 10 -1 15 -5 12 -11 -3 -5 -1 -10 5
-10 10 0 26 28 19 34 -2 1 -15 -1 -29 -5z"/>
<path d="M5490 3140 c-9 -6 -10 -10 -3 -10 6 0 15 5 18 10 8 12 4 12 -15 0z"/>
<path d="M5628 3143 c7 -3 16 -2 19 1 4 3 -2 6 -13 5 -11 0 -14 -3 -6 -6z"/>
<path d="M5447 3129 c7 -7 15 -10 18 -7 3 3 -2 9 -12 12 -14 6 -15 5 -6 -5z"/>
<path d="M5525 3100 c-3 -5 1 -10 10 -10 9 0 13 5 10 10 -3 6 -8 10 -10 10 -2
0 -7 -4 -10 -10z"/>
<path d="M175 3040 c-3 -5 -1 -10 4 -10 6 0 11 5 11 10 0 6 -2 10 -4 10 -3 0
-8 -4 -11 -10z"/>
<path d="M5008 3033 c7 -3 16 -2 19 1 4 3 -2 6 -13 5 -11 0 -14 -3 -6 -6z"/>
<path d="M5730 3030 c0 -5 5 -10 11 -10 5 0 7 5 4 10 -3 6 -8 10 -11 10 -2 0
-4 -4 -4 -10z"/>
<path d="M5208 2993 c7 -3 16 -2 19 1 4 3 -2 6 -13 5 -11 0 -14 -3 -6 -6z"/>
<path d="M191 2954 c0 -11 3 -14 6 -6 3 7 2 16 -1 19 -3 4 -6 -2 -5 -13z"/>
<path d="M4695 2930 c-3 -6 1 -7 9 -4 18 7 21 14 7 14 -6 0 -13 -4 -16 -10z"/>
<path d="M5768 2933 c7 -3 16 -2 19 1 4 3 -2 6 -13 5 -11 0 -14 -3 -6 -6z"/>
<path d="M2345 2921 c-3 -5 -1 -12 5 -16 5 -3 10 1 10 9 0 18 -6 21 -15 7z"/>
<path d="M5120 2920 c0 -5 5 -10 11 -10 5 0 7 5 4 10 -3 6 -8 10 -11 10 -2 0
-4 -4 -4 -10z"/>
<path d="M5500 2880 c0 -5 5 -10 11 -10 5 0 7 5 4 10 -3 6 -8 10 -11 10 -2 0
-4 -4 -4 -10z"/>
<path d="M168 2863 c7 -3 16 -2 19 1 4 3 -2 6 -13 5 -11 0 -14 -3 -6 -6z"/>
<path d="M5410 2860 c0 -5 5 -10 11 -10 5 0 7 5 4 10 -3 6 -8 10 -11 10 -2 0
-4 -4 -4 -10z"/>
<path d="M5825 2860 c3 -5 8 -10 11 -10 2 0 4 5 4 10 0 6 -5 10 -11 10 -5 0
-7 -4 -4 -10z"/>
<path d="M5850 2760 c0 -5 5 -10 10 -10 6 0 10 5 10 10 0 6 -4 10 -10 10 -5 0
-10 -4 -10 -10z"/>
<path d="M3590 2730 c0 -5 5 -10 11 -10 5 0 7 5 4 10 -3 6 -8 10 -11 10 -2 0
-4 -4 -4 -10z"/>
<path d="M3630 2736 c0 -2 7 -7 16 -10 8 -3 12 -2 9 4 -6 10 -25 14 -25 6z"/>
<path d="M5935 2720 c-3 -5 -1 -10 4 -10 6 0 11 5 11 10 0 6 -2 10 -4 10 -3 0
-8 -4 -11 -10z"/>
<path d="M280 2705 c0 -8 4 -15 10 -15 5 0 7 7 4 15 -4 8 -8 15 -10 15 -2 0
-4 -7 -4 -15z"/>
<path d="M2097 2649 c7 -7 15 -10 18 -7 3 3 -2 9 -12 12 -14 6 -15 5 -6 -5z"/>
<path d="M80 2639 c0 -5 5 -7 10 -4 6 3 10 8 10 11 0 2 -4 4 -10 4 -5 0 -10
-5 -10 -11z"/>
<path d="M3743 2635 c0 -8 4 -12 9 -9 5 3 6 10 3 15 -9 13 -12 11 -12 -6z"/>
<path d="M5650 2620 c0 -5 5 -10 10 -10 6 0 10 5 10 10 0 6 -4 10 -10 10 -5 0
-10 -4 -10 -10z"/>
<path d="M5780 2619 c0 -5 5 -7 10 -4 6 3 10 8 10 11 0 2 -4 4 -10 4 -5 0 -10
-5 -10 -11z"/>
<path d="M5918 2623 c7 -3 16 -2 19 1 4 3 -2 6 -13 5 -11 0 -14 -3 -6 -6z"/>
<path d="M5111 2594 c0 -11 3 -14 6 -6 3 7 2 16 -1 19 -3 4 -6 -2 -5 -13z"/>
<path d="M3797 2569 c7 -7 15 -10 18 -7 3 3 -2 9 -12 12 -14 6 -15 5 -6 -5z"/>
<path d="M5635 2570 c3 -5 8 -10 11 -10 2 0 4 5 4 10 0 6 -5 10 -11 10 -5 0
-7 -4 -4 -10z"/>
<path d="M5690 2530 c0 -5 5 -10 10 -10 6 0 10 5 10 10 0 6 -4 10 -10 10 -5 0
-10 -4 -10 -10z"/>
<path d="M5955 2520 c3 -5 11 -10 16 -10 6 0 7 5 4 10 -3 6 -11 10 -16 10 -6
0 -7 -4 -4 -10z"/>
<path d="M5260 2509 c0 -5 5 -7 10 -4 6 3 10 8 10 11 0 2 -4 4 -10 4 -5 0 -10
-5 -10 -11z"/>
<path d="M80 2480 c0 -5 5 -10 11 -10 5 0 7 5 4 10 -3 6 -8 10 -11 10 -2 0 -4
-4 -4 -10z"/>
<path d="M3133 2473 c9 -2 23 -2 30 0 6 3 -1 5 -18 5 -16 0 -22 -2 -12 -5z"/>
<path d="M5750 2441 c0 -6 4 -13 10 -16 6 -3 7 1 4 9 -7 18 -14 21 -14 7z"/>
<path d="M155 2421 c-3 -5 -1 -12 5 -16 5 -3 10 1 10 9 0 18 -6 21 -15 7z"/>
<path d="M5565 2390 c-3 -5 -1 -10 4 -10 6 0 11 5 11 10 0 6 -2 10 -4 10 -3 0
-8 -4 -11 -10z"/>
<path d="M5855 2390 c3 -5 8 -10 11 -10 2 0 4 5 4 10 0 6 -5 10 -11 10 -5 0
-7 -4 -4 -10z"/>
<path d="M3825 2381 c-3 -5 -2 -12 3 -15 5 -3 9 1 9 9 0 17 -3 19 -12 6z"/>
<path d="M3070 2360 c-8 -5 -10 -10 -5 -10 6 0 17 5 25 10 8 5 11 10 5 10 -5
0 -17 -5 -25 -10z"/>
<path d="M5580 2351 c0 -6 4 -12 8 -15 5 -3 9 1 9 9 0 8 -4 15 -9 15 -4 0 -8
-4 -8 -9z"/>
<path d="M900 2280 c0 -5 5 -10 11 -10 5 0 7 5 4 10 -3 6 -8 10 -11 10 -2 0
-4 -4 -4 -10z"/>
<path d="M290 2229 c0 -5 5 -7 10 -4 6 3 10 8 10 11 0 2 -4 4 -10 4 -5 0 -10
-5 -10 -11z"/>
<path d="M2515 2140 c-3 -5 -1 -10 4 -10 6 0 11 5 11 10 0 6 -2 10 -4 10 -3 0
-8 -4 -11 -10z"/>
<path d="M5770 2140 c0 -5 5 -10 10 -10 6 0 10 5 10 10 0 6 -4 10 -10 10 -5 0
-10 -4 -10 -10z"/>
<path d="M3927 2125 c-4 -8 -3 -16 1 -19 4 -3 9 4 9 15 2 23 -3 25 -10 4z"/>
<path d="M1810 1956 c0 -2 7 -7 16 -10 8 -3 12 -2 9 4 -6 10 -25 14 -25 6z"/>
<path d="M855 1940 c3 -5 8 -10 11 -10 2 0 4 5 4 10 0 6 -5 10 -11 10 -5 0 -7
-4 -4 -10z"/>
<path d="M155 1909 c-4 -6 -5 -12 -2 -15 2 -3 7 2 10 11 7 17 1 20 -8 4z"/>
<path d="M840 1890 c0 -5 5 -10 11 -10 5 0 7 5 4 10 -3 6 -8 10 -11 10 -2 0
-4 -4 -4 -10z"/>
<path d="M5950 1850 c-8 -5 -12 -11 -10 -14 3 -2 14 2 24 10 22 15 10 19 -14
4z"/>
<path d="M5780 1839 c0 -5 5 -7 10 -4 6 3 10 8 10 11 0 2 -4 4 -10 4 -5 0 -10
-5 -10 -11z"/>
<path d="M5810 1809 c0 -5 5 -7 10 -4 6 3 10 8 10 11 0 2 -4 4 -10 4 -5 0 -10
-5 -10 -11z"/>
<path d="M227 1786 c-4 -10 1 -12 14 -9 23 6 24 9 5 16 -8 3 -17 0 -19 -7z"/>
<path d="M408 1783 c7 -3 16 -2 19 1 4 3 -2 6 -13 5 -11 0 -14 -3 -6 -6z"/>
<path d="M5768 1773 c7 -3 16 -2 19 1 4 3 -2 6 -13 5 -11 0 -14 -3 -6 -6z"/>
<path d="M1791 1714 c0 -11 3 -14 6 -6 3 7 2 16 -1 19 -3 4 -6 -2 -5 -13z"/>
<path d="M393 1702 c-18 -13 -27 -92 -10 -92 4 0 7 7 7 15 0 8 4 15 10 15 5 0
7 -7 4 -15 -5 -11 -2 -13 10 -9 13 5 16 0 16 -25 0 -20 4 -29 13 -26 9 4 12
-11 13 -52 2 -111 5 -143 14 -148 5 -3 5 -18 0 -34 -4 -16 -6 -32 -4 -34 3 -3
7 -31 9 -62 4 -47 1 -61 -13 -72 -16 -13 -15 -14 5 -10 18 4 22 -1 25 -29 2
-19 0 -38 -5 -43 -5 -5 -4 -17 2 -29 13 -25 14 -45 2 -37 -15 9 -24 -16 -11
-28 10 -9 11 -9 6 1 -4 6 -2 12 3 12 19 0 12 -18 -19 -48 -33 -34 -38 -49 -15
-49 8 0 15 9 15 19 0 11 7 18 19 18 42 0 46 21 32 188 -24 304 -42 474 -52
494 -5 10 -23 21 -40 25 -20 4 -29 11 -29 24 0 18 10 19 130 19 121 0 130 -1
130 -19 0 -12 -9 -21 -25 -25 -15 -4 -27 -16 -31 -32 -4 -14 5 -164 20 -332
24 -284 27 -308 47 -324 12 -10 27 -18 35 -18 8 0 14 -9 14 -20 0 -19 -7 -20
-125 -20 -69 0 -125 -4 -125 -9 0 -5 -10 -7 -22 -5 -13 2 -16 1 -8 -2 8 -3 21
-13 28 -22 7 -10 12 -11 12 -4 0 16 52 15 69 0 11 -11 13 -10 8 4 -5 15 -3 16
18 6 17 -8 28 -8 37 0 14 11 67 10 86 -2 7 -4 12 -2 12 3 0 6 7 11 15 11 8 0
15 6 15 13 0 9 2 9 9 -1 9 -16 133 -25 175 -14 39 11 55 36 38 60 -7 9 -15 25
-18 35 -4 9 -13 17 -20 17 -8 0 -14 10 -14 25 0 14 6 25 13 25 8 0 9 3 1 8
-14 9 -26 94 -12 86 6 -4 5 2 -1 14 -6 12 -11 34 -9 49 1 15 -2 38 -6 50 -4
13 -3 31 3 40 9 16 10 15 11 -7 0 -15 17 -43 44 -72 25 -27 39 -49 32 -52 -6
-2 -3 -5 6 -5 10 -1 15 -7 13 -14 -3 -6 5 -17 17 -22 15 -6 24 -20 26 -39 3
-22 6 -26 13 -15 6 10 9 6 9 -15 0 -16 3 -26 7 -23 10 11 54 -56 48 -74 -3
-10 -1 -20 4 -24 7 -4 8 1 5 12 -3 10 11 -1 31 -24 31 -37 41 -42 68 -39 44 6
68 16 61 27 -3 5 0 9 6 9 8 0 10 10 6 28 -3 15 -3 21 0 14 3 -6 10 -10 15 -6
5 3 9 -2 9 -11 0 -10 5 -13 12 -9 8 5 9 2 4 -11 -6 -16 -4 -16 11 -4 15 12 16
12 10 -4 -4 -11 -3 -16 4 -12 5 4 16 2 24 -5 21 -18 102 -23 184 -12 58 9 76
15 90 34 8 13 15 28 13 33 -1 6 5 1 14 -10 8 -11 20 -19 25 -18 5 2 9 -2 9 -8
0 -5 5 -7 10 -4 6 3 13 0 16 -8 2 -7 10 -14 17 -15 68 -8 86 -7 112 7 17 8 42
16 57 16 14 1 32 6 40 12 7 6 20 13 28 17 8 3 5 4 -7 2 -28 -5 -31 16 -5 42 9
10 18 27 20 37 6 40 11 73 13 82 1 4 0 15 -4 23 -15 39 -16 91 -1 97 7 3 14
10 14 15 0 7 -4 7 -12 0 -17 -13 -35 6 -33 35 1 14 -3 19 -12 16 -7 -3 -16 2
-19 11 -3 9 -9 14 -14 11 -4 -2 -16 2 -26 10 -10 8 -28 15 -39 15 -11 0 -32 7
-47 14 -19 10 -27 11 -25 3 1 -7 -9 -13 -23 -14 -14 0 -30 -1 -36 -2 -6 -1
-24 -12 -39 -25 -16 -14 -33 -22 -38 -19 -6 3 -7 1 -3 -5 3 -6 -2 -13 -11 -15
-17 -4 -17 -5 0 -6 17 -1 16 -2 -2 -22 -13 -15 -22 -42 -26 -88 -9 -86 -13
-101 -29 -95 -8 3 -21 -11 -33 -35 -11 -22 -23 -38 -27 -34 -3 3 -6 1 -6 -4 0
-6 -11 -10 -25 -9 -13 2 -22 -1 -19 -5 12 -20 -16 -7 -46 21 -28 26 -30 32
-19 52 11 20 10 21 -3 11 -16 -14 -16 -13 -20 47 -1 17 -6 30 -11 30 -5 0 -5
6 2 13 8 10 7 17 -1 25 -9 9 -9 12 2 12 13 0 13 2 0 11 -9 6 -11 12 -4 15 6 2
8 19 6 36 -3 22 -1 29 7 24 8 -6 10 0 5 18 -4 19 -2 28 10 32 9 3 14 10 11 14
-3 5 0 12 6 16 8 4 9 3 5 -4 -4 -7 -3 -12 3 -12 5 0 12 4 15 9 3 5 15 11 26
14 11 3 18 1 15 -3 -3 -5 1 -11 7 -14 9 -3 7 -9 -6 -20 -11 -9 -15 -16 -9 -16
7 0 15 5 18 11 4 6 20 0 42 -16 28 -22 41 -26 69 -20 l36 6 -4 65 c-2 36 1 66
7 69 6 2 3 4 -5 3 -8 -1 -25 3 -37 10 -12 6 -38 13 -57 14 -20 2 -36 6 -36 9
0 3 -7 6 -15 6 -8 0 -12 -3 -10 -7 2 -4 -15 -7 -38 -8 -23 -1 -50 -2 -60 -2
-9 -1 -15 -6 -11 -12 4 -6 -3 -5 -16 2 -13 7 -20 8 -16 2 4 -6 -7 -21 -24 -33
-16 -13 -30 -28 -30 -34 0 -6 -8 -17 -17 -26 -17 -14 -18 -10 -18 64 0 69 3
80 20 90 12 7 20 19 20 27 0 8 4 18 10 22 6 5 5 12 -4 20 -11 11 -13 11 -6 0
6 -11 3 -11 -13 -1 -12 7 -19 16 -17 19 4 6 -127 3 -157 -4 -9 -2 -19 1 -22 8
-2 6 -5 3 -5 -7 -1 -10 -5 -16 -9 -13 -5 3 -9 -10 -10 -29 -1 -19 3 -35 8 -35
6 0 10 -8 11 -17 0 -12 2 -14 6 -5 11 28 35 -27 28 -65 -4 -25 -3 -33 5 -28 7
4 6 -1 -2 -15 -10 -18 -10 -24 0 -27 6 -3 12 -11 12 -19 0 -8 -6 -14 -12 -14
-10 0 -10 -2 -1 -8 6 -4 11 -26 10 -49 -2 -41 -3 -42 -20 -24 -10 10 -20 26
-21 37 -2 10 -8 18 -13 17 -6 -1 -22 22 -37 52 -15 30 -29 55 -32 55 -3 0 -2
-5 2 -12 4 -7 3 -8 -4 -4 -6 4 -8 14 -5 24 3 9 3 14 -2 10 -9 -9 -68 79 -70
104 -1 10 -5 21 -10 25 -4 5 -5 0 -2 -9 3 -10 2 -20 -4 -23 -5 -4 -9 -3 -8 2
4 24 -3 43 -16 43 -8 0 -15 9 -15 20 0 17 -4 18 -25 10 -21 -8 -25 -7 -25 8 0
10 -3 13 -8 6 -12 -18 -39 -23 -71 -14 -20 5 -33 5 -37 -2 -3 -5 -18 -7 -33
-4 -14 3 -20 3 -13 0 6 -3 12 -19 12 -35 0 -27 32 -73 43 -62 3 3 3 -5 0 -18
-5 -17 -3 -20 7 -14 10 6 12 0 7 -28 -3 -21 -3 -37 1 -37 4 0 7 -15 8 -32 1
-18 4 -44 7 -56 5 -18 3 -23 -9 -18 -12 5 -13 2 -2 -17 12 -22 14 -36 19 -162
1 -38 7 -74 13 -78 8 -6 7 -10 -1 -14 -7 -2 -13 -9 -13 -14 0 -6 5 -7 12 -3 7
4 8 3 4 -5 -4 -6 -12 -8 -18 -5 -7 5 -9 1 -5 -9 6 -15 -20 -34 -31 -22 -3 3 0
5 7 5 9 0 9 4 -1 14 -8 9 -15 10 -19 4 -4 -6 -15 -2 -28 11 -17 17 -21 34 -22
89 -3 129 -6 169 -13 181 -4 6 -2 11 4 11 6 0 8 5 3 13 -11 18 -17 55 -17 119
-1 32 -3 58 -6 58 -3 0 -6 11 -6 25 -1 14 2 22 7 19 13 -7 11 10 -2 23 -18 18
-21 69 -5 86 8 8 12 17 9 21 -3 3 8 9 25 12 38 8 39 11 8 49 l-24 30 -121 0
c-83 0 -126 -4 -138 -13z m562 -269 c90 -132 224 -331 242 -359 9 -15 10 -11
3 21 -5 22 -14 117 -20 210 -6 94 -13 178 -16 187 -3 10 -16 21 -30 24 -13 3
-24 12 -24 20 0 11 20 14 90 14 69 0 90 -3 90 -13 0 -8 -12 -19 -26 -26 l-26
-12 7 -122 c4 -67 12 -200 19 -294 6 -95 9 -173 6 -174 -59 -9 -56 -12 -183
173 -127 184 -223 331 -230 351 -10 29 -14 -2 -6 -48 4 -27 15 -132 24 -233 8
-101 17 -188 21 -193 3 -6 17 -14 30 -19 47 -18 25 -30 -55 -30 -44 0 -86 -3
-95 -6 -11 -4 -16 -1 -16 10 0 9 11 21 24 26 13 5 27 13 30 19 10 15 -32 522
-45 537 -6 7 -19 16 -30 19 -10 4 -19 13 -19 21 0 11 17 14 78 14 l77 0 80
-117z m665 -30 c5 -4 11 -29 15 -54 6 -41 5 -47 -14 -52 -15 -4 -24 1 -32 16
-26 49 -51 67 -97 67 -88 0 -128 -79 -119 -233 7 -139 52 -206 135 -207 36 0
92 45 92 74 0 10 9 16 25 16 24 0 25 -3 25 -54 0 -61 1 -60 -102 -72 -171 -20
-259 74 -260 275 -1 122 43 194 137 230 33 12 182 8 195 -6z m-70 -83 c0 -5
-2 -10 -4 -10 -3 0 -8 5 -11 10 -3 6 -1 10 4 10 6 0 11 -4 11 -10z m371 -33
c52 -34 74 -88 74 -177 0 -97 -23 -146 -86 -178 -34 -18 -55 -22 -92 -19 -94
8 -139 67 -145 191 -3 70 0 87 20 125 29 55 74 81 144 81 36 0 61 -6 85 -23z
m-987 -22 c3 -8 1 -15 -4 -15 -6 0 -10 7 -10 15 0 8 2 15 4 15 2 0 6 -7 10
-15z m1041 -334 c3 -5 1 -12 -5 -16 -5 -3 -10 1 -10 9 0 18 6 21 15 7z"/>
<path d="M1787 1269 c-52 -30 -66 -187 -24 -269 39 -79 119 -76 153 5 17 41
18 134 3 189 -20 71 -80 105 -132 75z m81 -58 c2 -12 7 -19 11 -17 10 7 12
-73 5 -154 -5 -47 -9 -59 -15 -45 -7 20 -8 19 -8 -1 -1 -17 -6 -21 -27 -18
-23 2 -60 24 -41 24 4 0 -1 16 -11 34 -24 45 -21 172 5 196 8 8 13 10 9 3 -4
-7 1 -10 11 -8 10 1 24 -2 31 -8 7 -5 15 -7 19 -3 3 3 1 6 -6 6 -7 0 -10 4 -6
9 3 6 -4 8 -15 6 -20 -4 -26 5 -13 18 11 12 48 -19 51 -42z"/>
<path d="M3896 1712 c-3 -5 1 -9 9 -9 8 0 12 4 9 9 -3 4 -7 8 -9 8 -2 0 -6 -4
-9 -8z"/>
<path d="M1780 1685 c7 -8 9 -23 5 -34 -3 -10 -1 -22 4 -26 6 -3 8 0 5 8 -3 8
-1 18 5 22 6 3 11 -1 11 -9 0 -8 9 -20 20 -26 11 -6 18 -14 16 -18 -3 -5 -1
-14 5 -22 6 -11 9 -11 9 -2 0 9 8 9 36 -3 54 -22 55 -18 4 14 -25 15 -57 44
-70 64 -14 20 -33 38 -43 41 -14 3 -16 2 -7 -9z"/>
<path d="M110 1650 c8 -5 24 -10 34 -10 26 0 18 6 -19 14 -22 5 -26 4 -15 -4z"/>
<path d="M715 1639 c-4 -6 -4 -13 -1 -16 3 -4 6 -1 6 5 0 6 8 13 18 15 15 4
15 5 0 6 -9 0 -20 -4 -23 -10z"/>
<path d="M5601 1634 c0 -11 3 -14 6 -6 3 7 2 16 -1 19 -3 4 -6 -2 -5 -13z"/>
<path d="M637 1593 c-4 -3 -7 -11 -7 -17 0 -6 5 -5 12 2 6 6 9 14 7 17 -3 3
-9 2 -12 -2z"/>
<path d="M5382 1575 c-11 -12 -10 -15 3 -15 8 0 15 7 15 15 0 18 -2 18 -18 0z"/>
<path d="M5750 1550 c-9 -6 -10 -10 -3 -10 6 0 15 5 18 10 8 12 4 12 -15 0z"/>
<path d="M1330 1516 c0 -2 7 -7 16 -10 8 -3 12 -2 9 4 -6 10 -25 14 -25 6z"/>
<path d="M65 1500 c-3 -5 -2 -10 4 -10 5 0 13 5 16 10 3 6 2 10 -4 10 -5 0
-13 -4 -16 -10z"/>
<path d="M1450 1501 c0 -5 5 -13 10 -16 6 -3 10 -2 10 4 0 5 -4 13 -10 16 -5
3 -10 2 -10 -4z"/>
<path d="M5750 1470 c0 -5 5 -10 11 -10 5 0 7 5 4 10 -3 6 -8 10 -11 10 -2 0
-4 -4 -4 -10z"/>
<path d="M5850 1469 c0 -5 5 -7 10 -4 6 3 10 8 10 11 0 2 -4 4 -10 4 -5 0 -10
-5 -10 -11z"/>
<path d="M3877 1459 c7 -7 15 -10 18 -7 3 3 -2 9 -12 12 -14 6 -15 5 -6 -5z"/>
<path d="M5950 1459 c0 -5 5 -7 10 -4 6 3 10 8 10 11 0 2 -4 4 -10 4 -5 0 -10
-5 -10 -11z"/>
<path d="M1026 1417 c3 -10 9 -15 12 -12 3 3 0 11 -7 18 -10 9 -11 8 -5 -6z"/>
<path d="M5860 1410 c0 -5 5 -10 10 -10 6 0 10 5 10 10 0 6 -4 10 -10 10 -5 0
-10 -4 -10 -10z"/>
<path d="M5413 1363 c0 -9 4 -10 14 -2 7 6 13 12 13 14 0 1 -6 2 -13 2 -8 0
-14 -6 -14 -14z"/>
<path d="M5818 1373 c7 -3 16 -2 19 1 4 3 -2 6 -13 5 -11 0 -14 -3 -6 -6z"/>
<path d="M4178 1353 c7 -3 16 -2 19 1 4 3 -2 6 -13 5 -11 0 -14 -3 -6 -6z"/>
<path d="M390 1340 c0 -6 7 -10 15 -10 8 0 15 2 15 4 0 2 -7 6 -15 10 -8 3
-15 1 -15 -4z"/>
<path d="M5575 1340 c-3 -5 -1 -10 4 -10 6 0 11 5 11 10 0 6 -2 10 -4 10 -3 0
-8 -4 -11 -10z"/>
<path d="M5868 1343 c7 -3 16 -2 19 1 4 3 -2 6 -13 5 -11 0 -14 -3 -6 -6z"/>
<path d="M1478 1323 c7 -3 16 -2 19 1 4 3 -2 6 -13 5 -11 0 -14 -3 -6 -6z"/>
<path d="M1928 1323 c7 -3 16 -2 19 1 4 3 -2 6 -13 5 -11 0 -14 -3 -6 -6z"/>
<path d="M4554 1298 c-4 -6 -3 -8 4 -4 5 3 13 0 15 -6 3 -8 6 -6 6 5 1 19 -14
23 -25 5z"/>
<path d="M5505 1299 c-4 -6 -5 -12 -2 -15 2 -3 7 2 10 11 7 17 1 20 -8 4z"/>
<path d="M5755 1290 c3 -5 8 -10 11 -10 2 0 4 5 4 10 0 6 -5 10 -11 10 -5 0
-7 -4 -4 -10z"/>
<path d="M738 1223 c7 -3 16 -2 19 1 4 3 -2 6 -13 5 -11 0 -14 -3 -6 -6z"/>
<path d="M5957 1219 c7 -7 15 -10 18 -7 3 3 -2 9 -12 12 -14 6 -15 5 -6 -5z"/>
<path d="M5875 1190 c3 -5 8 -10 11 -10 2 0 4 5 4 10 0 6 -5 10 -11 10 -5 0
-7 -4 -4 -10z"/>
<path d="M675 1170 c-3 -5 -1 -10 4 -10 6 0 11 5 11 10 0 6 -2 10 -4 10 -3 0
-8 -4 -11 -10z"/>
<path d="M733 1135 c-3 -9 -3 -18 -1 -21 3 -3 8 4 11 16 6 23 -1 27 -10 5z"/>
<path d="M310 1129 c0 -5 5 -7 10 -4 6 3 10 8 10 11 0 2 -4 4 -10 4 -5 0 -10
-5 -10 -11z"/>
<path d="M5758 1133 c7 -3 16 -2 19 1 4 3 -2 6 -13 5 -11 0 -14 -3 -6 -6z"/>
<path d="M2008 953 c7 -3 16 -2 19 1 4 3 -2 6 -13 5 -11 0 -14 -3 -6 -6z"/>
<path d="M5818 933 c7 -3 16 -2 19 1 4 3 -2 6 -13 5 -11 0 -14 -3 -6 -6z"/>
<path d="M5911 924 c0 -11 3 -14 6 -6 3 7 2 16 -1 19 -3 4 -6 -2 -5 -13z"/>
<path d="M1676 912 c-3 -5 1 -9 9 -9 8 0 12 4 9 9 -3 4 -7 8 -9 8 -2 0 -6 -4
-9 -8z"/>
<path d="M1995 910 c-3 -6 1 -7 9 -4 18 7 21 14 7 14 -6 0 -13 -4 -16 -10z"/>
<path d="M255 900 c-3 -6 1 -7 9 -4 18 7 21 14 7 14 -6 0 -13 -4 -16 -10z"/>
<path d="M5447 849 c7 -7 15 -10 18 -7 3 3 -2 9 -12 12 -14 6 -15 5 -6 -5z"/>
<path d="M5955 850 c-3 -5 -1 -10 4 -10 6 0 11 5 11 10 0 6 -2 10 -4 10 -3 0
-8 -4 -11 -10z"/>
<path d="M1190 839 c0 -5 5 -7 10 -4 6 3 10 8 10 11 0 2 -4 4 -10 4 -5 0 -10
-5 -10 -11z"/>
<path d="M5480 835 c0 -8 4 -15 10 -15 5 0 7 7 4 15 -4 8 -8 15 -10 15 -2 0
-4 -7 -4 -15z"/>
<path d="M588 823 c7 -3 16 -2 19 1 4 3 -2 6 -13 5 -11 0 -14 -3 -6 -6z"/>
<path d="M1471 754 c0 -11 3 -14 6 -6 3 7 2 16 -1 19 -3 4 -6 -2 -5 -13z"/>
<path d="M227 733 c-4 -3 -7 -11 -7 -17 0 -6 5 -5 12 2 6 6 9 14 7 17 -3 3 -9
2 -12 -2z"/>
<path d="M5765 730 c3 -5 8 -10 11 -10 2 0 4 5 4 10 0 6 -5 10 -11 10 -5 0 -7
-4 -4 -10z"/>
<path d="M5898 723 c7 -3 16 -2 19 1 4 3 -2 6 -13 5 -11 0 -14 -3 -6 -6z"/>
<path d="M50 690 c0 -5 5 -10 10 -10 6 0 10 5 10 10 0 6 -4 10 -10 10 -5 0
-10 -4 -10 -10z"/>
<path d="M5750 674 c0 -8 5 -12 10 -9 6 4 8 11 5 16 -9 14 -15 11 -15 -7z"/>
<path d="M5820 669 c0 -5 5 -7 10 -4 6 3 10 8 10 11 0 2 -4 4 -10 4 -5 0 -10
-5 -10 -11z"/>
<path d="M5666 662 c-3 -5 1 -9 9 -9 8 0 12 4 9 9 -3 4 -7 8 -9 8 -2 0 -6 -4
-9 -8z"/>
<path d="M335 650 c-3 -6 1 -7 9 -4 18 7 21 14 7 14 -6 0 -13 -4 -16 -10z"/>
<path d="M1070 650 c0 -5 5 -10 10 -10 6 0 10 5 10 10 0 6 -4 10 -10 10 -5 0
-10 -4 -10 -10z"/>
<path d="M5705 650 c-3 -5 -1 -10 4 -10 6 0 11 5 11 10 0 6 -2 10 -4 10 -3 0
-8 -4 -11 -10z"/>
<path d="M5911 644 c0 -11 3 -14 6 -6 3 7 2 16 -1 19 -3 4 -6 -2 -5 -13z"/>
<path d="M580 640 c0 -5 5 -10 10 -10 6 0 10 5 10 10 0 6 -4 10 -10 10 -5 0
-10 -4 -10 -10z"/>
<path d="M170 620 c-9 -6 -10 -10 -3 -10 6 0 15 5 18 10 8 12 4 12 -15 0z"/>
<path d="M5670 614 c0 -8 5 -12 10 -9 6 4 8 11 5 16 -9 14 -15 11 -15 -7z"/>
<path d="M391 604 c0 -11 3 -14 6 -6 3 7 2 16 -1 19 -3 4 -6 -2 -5 -13z"/>
<path d="M4525 610 c-3 -5 -1 -10 4 -10 6 0 11 5 11 10 0 6 -2 10 -4 10 -3 0
-8 -4 -11 -10z"/>
<path d="M315 599 c-4 -6 -5 -12 -2 -15 2 -3 7 2 10 11 7 17 1 20 -8 4z"/>
<path d="M4613 595 c0 -7 6 -11 14 -8 7 3 13 6 13 8 0 2 -6 5 -13 8 -8 3 -14
-1 -14 -8z"/>
<path d="M5046 595 c-9 -26 -7 -32 5 -12 6 10 9 21 6 23 -2 3 -7 -2 -11 -11z"/>
<path d="M5715 600 c-3 -5 1 -10 10 -10 9 0 13 5 10 10 -3 6 -8 10 -10 10 -2
0 -7 -4 -10 -10z"/>
<path d="M4550 596 c0 -2 9 -6 20 -9 11 -3 18 -1 14 4 -5 9 -34 13 -34 5z"/>
<path d="M4986 578 c3 -5 10 -6 15 -3 13 9 11 12 -6 12 -8 0 -12 -4 -9 -9z"/>
<path d="M58 573 c7 -3 16 -2 19 1 4 3 -2 6 -13 5 -11 0 -14 -3 -6 -6z"/>
<path d="M241 564 c0 -11 3 -14 6 -6 3 7 2 16 -1 19 -3 4 -6 -2 -5 -13z"/>
<path d="M801 534 c0 -11 3 -14 6 -6 3 7 2 16 -1 19 -3 4 -6 -2 -5 -13z"/>
<path d="M3982 537 c-8 -10 -5 -16 11 -27 20 -12 21 -12 9 3 -8 9 -11 21 -7
27 9 14 0 13 -13 -3z"/>
<path d="M65 531 c-3 -5 -1 -12 5 -16 5 -3 10 1 10 9 0 18 -6 21 -15 7z"/>
<path d="M4015 520 c3 -5 8 -10 11 -10 2 0 4 5 4 10 0 6 -5 10 -11 10 -5 0 -7
-4 -4 -10z"/>
<path d="M1470 430 c0 -5 5 -10 11 -10 5 0 7 5 4 10 -3 6 -8 10 -11 10 -2 0
-4 -4 -4 -10z"/>
<path d="M5318 433 c7 -3 16 -2 19 1 4 3 -2 6 -13 5 -11 0 -14 -3 -6 -6z"/>
<path d="M311 414 c0 -11 3 -14 6 -6 3 7 2 16 -1 19 -3 4 -6 -2 -5 -13z"/>
<path d="M5978 400 c-7 -24 -3 -38 8 -28 3 4 4 17 2 30 l-3 23 -7 -25z"/>
<path d="M5635 380 c-3 -5 -1 -10 4 -10 6 0 11 5 11 10 0 6 -2 10 -4 10 -3 0
-8 -4 -11 -10z"/>
<path d="M460 340 c-9 -6 -10 -10 -3 -10 6 0 15 5 18 10 8 12 4 12 -15 0z"/>
<path d="M4865 320 c-3 -5 -1 -10 4 -10 6 0 11 5 11 10 0 6 -2 10 -4 10 -3 0
-8 -4 -11 -10z"/>
<path d="M5957 303 c-4 -3 -7 -11 -7 -17 0 -6 5 -5 12 2 6 6 9 14 7 17 -3 3
-9 2 -12 -2z"/>
<path d="M100 290 c0 -5 5 -10 11 -10 5 0 7 5 4 10 -3 6 -8 10 -11 10 -2 0 -4
-4 -4 -10z"/>
<path d="M470 270 c0 -6 7 -10 15 -10 8 0 15 2 15 4 0 2 -7 6 -15 10 -8 3 -15
1 -15 -4z"/>
<path d="M625 260 c-3 -5 -1 -10 4 -10 6 0 11 5 11 10 0 6 -2 10 -4 10 -3 0
-8 -4 -11 -10z"/>
<path d="M5385 260 c-3 -6 1 -7 9 -4 18 7 21 14 7 14 -6 0 -13 -4 -16 -10z"/>
<path d="M510 229 c0 -5 5 -7 10 -4 6 3 10 8 10 11 0 2 -4 4 -10 4 -5 0 -10
-5 -10 -11z"/>
<path d="M148 173 c7 -3 16 -2 19 1 4 3 -2 6 -13 5 -11 0 -14 -3 -6 -6z"/>
<path d="M665 160 c-3 -5 -1 -10 4 -10 6 0 11 5 11 10 0 6 -2 10 -4 10 -3 0
-8 -4 -11 -10z"/>
<path d="M721 144 c0 -11 3 -14 6 -6 3 7 2 16 -1 19 -3 4 -6 -2 -5 -13z"/>
<path d="M60 140 c0 -5 5 -10 10 -10 6 0 10 5 10 10 0 6 -4 10 -10 10 -5 0
-10 -4 -10 -10z"/>
<path d="M5951 134 c0 -11 3 -14 6 -6 3 7 2 16 -1 19 -3 4 -6 -2 -5 -13z"/>
<path d="M226 121 c-3 -5 1 -11 9 -14 9 -4 12 -1 8 9 -6 16 -10 17 -17 5z"/>
<path d="M20 100 c8 -5 20 -10 25 -10 6 0 3 5 -5 10 -8 5 -19 10 -25 10 -5 0
-3 -5 5 -10z"/>
<path d="M1658 93 c7 -3 16 -2 19 1 4 3 -2 6 -13 5 -11 0 -14 -3 -6 -6z"/>
<path d="M5930 91 c0 -6 5 -13 10 -16 6 -3 10 1 10 9 0 9 -4 16 -10 16 -5 0
-10 -4 -10 -9z"/>
<path d="M5745 60 c-3 -5 -1 -10 4 -10 6 0 11 5 11 10 0 6 -2 10 -4 10 -3 0
-8 -4 -11 -10z"/>
<path d="M365 49 c-11 -16 -1 -19 13 -3 7 8 8 14 3 14 -5 0 -13 -5 -16 -11z"/>
<path d="M389 23 c-13 -16 -12 -17 4 -4 16 13 21 21 13 21 -2 0 -10 -8 -17
-17z"/>
<path d="M4168 33 c7 -3 16 -2 19 1 4 3 -2 6 -13 5 -11 0 -14 -3 -6 -6z"/>
</g>
</svg>
